<svg width="103" height="16" viewBox="0 0 103 16" fill="none" xmlns="http://www.w3.org/2000/svg">
<path d="M22.016 5.524V8.32H25.064V9.22H22.016V12.1H25.424V13H20.924V4.624H25.424V5.524H22.016ZM26.6683 9.688C26.6683 9.016 26.8043 8.428 27.0763 7.924C27.3483 7.412 27.7203 7.016 28.1923 6.736C28.6723 6.456 29.2043 6.316 29.7883 6.316C30.3643 6.316 30.8643 6.44 31.2883 6.688C31.7123 6.936 32.0283 7.248 32.2363 7.624V6.424H33.3403V13H32.2363V11.776C32.0203 12.16 31.6963 12.48 31.2643 12.736C30.8403 12.984 30.3443 13.108 29.7763 13.108C29.1923 13.108 28.6643 12.964 28.1923 12.676C27.7203 12.388 27.3483 11.984 27.0763 11.464C26.8043 10.944 26.6683 10.352 26.6683 9.688ZM32.2363 9.7C32.2363 9.204 32.1363 8.772 31.9363 8.404C31.7363 8.036 31.4643 7.756 31.1203 7.564C30.7843 7.364 30.4123 7.264 30.0043 7.264C29.5963 7.264 29.2243 7.36 28.8883 7.552C28.5523 7.744 28.2843 8.024 28.0843 8.392C27.8843 8.76 27.7843 9.192 27.7843 9.688C27.7843 10.192 27.8843 10.632 28.0843 11.008C28.2843 11.376 28.5523 11.66 28.8883 11.86C29.2243 12.052 29.5963 12.148 30.0043 12.148C30.4123 12.148 30.7843 12.052 31.1203 11.86C31.4643 11.66 31.7363 11.376 31.9363 11.008C32.1363 10.632 32.2363 10.196 32.2363 9.7ZM36.2777 7.492C36.4697 7.116 36.7417 6.824 37.0937 6.616C37.4537 6.408 37.8897 6.304 38.4017 6.304V7.432H38.1137C36.8897 7.432 36.2777 8.096 36.2777 9.424V13H35.1857V6.424H36.2777V7.492ZM42.8663 6.304C43.6663 6.304 44.3143 6.548 44.8103 7.036C45.3063 7.516 45.5543 8.212 45.5543 9.124V13H44.4743V9.28C44.4743 8.624 44.3103 8.124 43.9823 7.78C43.6543 7.428 43.2063 7.252 42.6383 7.252C42.0623 7.252 41.6023 7.432 41.2583 7.792C40.9223 8.152 40.7543 8.676 40.7543 9.364V13H39.6623V6.424H40.7543V7.36C40.9703 7.024 41.2623 6.764 41.6303 6.58C42.0063 6.396 42.4183 6.304 42.8663 6.304ZM53.3381 9.46C53.3381 9.668 53.3261 9.888 53.3021 10.12H48.0461C48.0861 10.768 48.3061 11.276 48.7061 11.644C49.1141 12.004 49.6061 12.184 50.1821 12.184C50.6541 12.184 51.0461 12.076 51.3581 11.86C51.6781 11.636 51.9021 11.34 52.0301 10.972H53.2061C53.0301 11.604 52.6781 12.12 52.1501 12.52C51.6221 12.912 50.9661 13.108 50.1821 13.108C49.5581 13.108 48.9981 12.968 48.5021 12.688C48.0141 12.408 47.6301 12.012 47.3501 11.5C47.0701 10.98 46.9301 10.38 46.9301 9.7C46.9301 9.02 47.0661 8.424 47.3381 7.912C47.6101 7.4 47.9901 7.008 48.4781 6.736C48.9741 6.456 49.5421 6.316 50.1821 6.316C50.8061 6.316 51.3581 6.452 51.8381 6.724C52.3181 6.996 52.6861 7.372 52.9421 7.852C53.2061 8.324 53.3381 8.86 53.3381 9.46ZM52.2101 9.232C52.2101 8.816 52.1181 8.46 51.9341 8.164C51.7501 7.86 51.4981 7.632 51.1781 7.48C50.8661 7.32 50.5181 7.24 50.1341 7.24C49.5821 7.24 49.1101 7.416 48.7181 7.768C48.3341 8.12 48.1141 8.608 48.0581 9.232H52.2101ZM54.3715 9.688C54.3715 9.016 54.5075 8.428 54.7795 7.924C55.0515 7.412 55.4235 7.016 55.8955 6.736C56.3755 6.456 56.9115 6.316 57.5035 6.316C58.0155 6.316 58.4915 6.436 58.9315 6.676C59.3715 6.908 59.7075 7.216 59.9395 7.6V4.12H61.0435V13H59.9395V11.764C59.7235 12.156 59.4035 12.48 58.9795 12.736C58.5555 12.984 58.0595 13.108 57.4915 13.108C56.9075 13.108 56.3755 12.964 55.8955 12.676C55.4235 12.388 55.0515 11.984 54.7795 11.464C54.5075 10.944 54.3715 10.352 54.3715 9.688ZM59.9395 9.7C59.9395 9.204 59.8395 8.772 59.6395 8.404C59.4395 8.036 59.1675 7.756 58.8235 7.564C58.4875 7.364 58.1155 7.264 57.7075 7.264C57.2995 7.264 56.9275 7.36 56.5915 7.552C56.2555 7.744 55.9875 8.024 55.7875 8.392C55.5875 8.76 55.4875 9.192 55.4875 9.688C55.4875 10.192 55.5875 10.632 55.7875 11.008C55.9875 11.376 56.2555 11.66 56.5915 11.86C56.9275 12.052 57.2995 12.148 57.7075 12.148C58.1155 12.148 58.4875 12.052 58.8235 11.86C59.1675 11.66 59.4395 11.376 59.6395 11.008C59.8395 10.632 59.9395 10.196 59.9395 9.7ZM71.6801 7.084C71.6801 7.78 71.4401 8.36 70.9601 8.824C70.4881 9.28 69.7641 9.508 68.7881 9.508H67.1801V13H66.0881V4.636H68.7881C69.7321 4.636 70.4481 4.864 70.9361 5.32C71.4321 5.776 71.6801 6.364 71.6801 7.084ZM68.7881 8.608C69.3961 8.608 69.8441 8.476 70.1321 8.212C70.4201 7.948 70.5641 7.572 70.5641 7.084C70.5641 6.052 69.9721 5.536 68.7881 5.536H67.1801V8.608H68.7881ZM75.9053 13.108C75.2893 13.108 74.7293 12.968 74.2253 12.688C73.7293 12.408 73.3373 12.012 73.0493 11.5C72.7693 10.98 72.6293 10.38 72.6293 9.7C72.6293 9.028 72.7733 8.436 73.0613 7.924C73.3573 7.404 73.7573 7.008 74.2613 6.736C74.7653 6.456 75.3293 6.316 75.9533 6.316C76.5773 6.316 77.1413 6.456 77.6453 6.736C78.1493 7.008 78.5453 7.4 78.8333 7.912C79.1293 8.424 79.2773 9.02 79.2773 9.7C79.2773 10.38 79.1253 10.98 78.8213 11.5C78.5253 12.012 78.1213 12.408 77.6093 12.688C77.0973 12.968 76.5293 13.108 75.9053 13.108ZM75.9053 12.148C76.2973 12.148 76.6653 12.056 77.0093 11.872C77.3533 11.688 77.6293 11.412 77.8373 11.044C78.0533 10.676 78.1613 10.228 78.1613 9.7C78.1613 9.172 78.0573 8.724 77.8493 8.356C77.6413 7.988 77.3693 7.716 77.0333 7.54C76.6973 7.356 76.3333 7.264 75.9413 7.264C75.5413 7.264 75.1733 7.356 74.8373 7.54C74.5093 7.716 74.2453 7.988 74.0453 8.356C73.8453 8.724 73.7453 9.172 73.7453 9.7C73.7453 10.236 73.8413 10.688 74.0333 11.056C74.2333 11.424 74.4973 11.7 74.8253 11.884C75.1533 12.06 75.5133 12.148 75.9053 12.148ZM81.2771 5.356C81.0691 5.356 80.8931 5.284 80.7491 5.14C80.6051 4.996 80.5331 4.82 80.5331 4.612C80.5331 4.404 80.6051 4.228 80.7491 4.084C80.8931 3.94 81.0691 3.868 81.2771 3.868C81.4771 3.868 81.6451 3.94 81.7811 4.084C81.9251 4.228 81.9971 4.404 81.9971 4.612C81.9971 4.82 81.9251 4.996 81.7811 5.14C81.6451 5.284 81.4771 5.356 81.2771 5.356ZM81.8051 6.424V13H80.7131V6.424H81.8051ZM86.8702 6.304C87.6702 6.304 88.3182 6.548 88.8142 7.036C89.3102 7.516 89.5582 8.212 89.5582 9.124V13H88.4782V9.28C88.4782 8.624 88.3142 8.124 87.9862 7.78C87.6582 7.428 87.2102 7.252 86.6422 7.252C86.0662 7.252 85.6062 7.432 85.2622 7.792C84.9262 8.152 84.7582 8.676 84.7582 9.364V13H83.6662V6.424H84.7582V7.36C84.9742 7.024 85.2662 6.764 85.6342 6.58C86.0102 6.396 86.4222 6.304 86.8702 6.304ZM92.674 7.324V11.2C92.674 11.52 92.742 11.748 92.878 11.884C93.014 12.012 93.25 12.076 93.586 12.076H94.39V13H93.406C92.798 13 92.342 12.86 92.038 12.58C91.734 12.3 91.582 11.84 91.582 11.2V7.324H90.73V6.424H91.582V4.768H92.674V6.424H94.39V7.324H92.674ZM98.0411 13.108C97.5371 13.108 97.0851 13.024 96.6851 12.856C96.2851 12.68 95.9691 12.44 95.7371 12.136C95.5051 11.824 95.3771 11.468 95.3531 11.068H96.4811C96.5131 11.396 96.6651 11.664 96.9371 11.872C97.2171 12.08 97.5811 12.184 98.0291 12.184C98.4451 12.184 98.7731 12.092 99.0131 11.908C99.2531 11.724 99.3731 11.492 99.3731 11.212C99.3731 10.924 99.2451 10.712 98.9891 10.576C98.7331 10.432 98.3371 10.292 97.8011 10.156C97.3131 10.028 96.9131 9.9 96.6011 9.772C96.2971 9.636 96.0331 9.44 95.8091 9.184C95.5931 8.92 95.4851 8.576 95.4851 8.152C95.4851 7.816 95.5851 7.508 95.7851 7.228C95.9851 6.948 96.2691 6.728 96.6371 6.568C97.0051 6.4 97.4251 6.316 97.8971 6.316C98.6251 6.316 99.2131 6.5 99.6611 6.868C100.109 7.236 100.349 7.74 100.381 8.38H99.2891C99.2651 8.036 99.1251 7.76 98.8691 7.552C98.6211 7.344 98.2851 7.24 97.8611 7.24C97.4691 7.24 97.1571 7.324 96.9251 7.492C96.6931 7.66 96.5771 7.88 96.5771 8.152C96.5771 8.368 96.6451 8.548 96.7811 8.692C96.9251 8.828 97.1011 8.94 97.3091 9.028C97.5251 9.108 97.8211 9.2 98.1971 9.304C98.6691 9.432 99.0531 9.56 99.3491 9.688C99.6451 9.808 99.8971 9.992 100.105 10.24C100.321 10.488 100.433 10.812 100.441 11.212C100.441 11.572 100.341 11.896 100.141 12.184C99.9411 12.472 99.6571 12.7 99.2891 12.868C98.9291 13.028 98.5131 13.108 98.0411 13.108Z" fill="#CDCDCD"/>
<path d="M8 12.0003C6.52691 12.0003 5.29966 11.4585 4.53297 10.6333L3.66667 9.70083V8.43423C3.66706 10.5548 5.647 12.0003 8 12.0003ZM8 12.0003C9.47425 12.0003 10.7068 11.4578 11.4657 10.6347L12.3333 9.69366V8.43359C12.3333 10.5545 10.3532 12.0003 8 12.0003ZM8 14.6669C8.9727 14.6669 9.89281 14.3813 10.633 13.8907C9.91048 14.3746 9.00282 14.6669 8 14.6669ZM8 14.6669C7.0273 14.6669 6.1072 14.3813 5.36705 13.8907C6.08952 14.3746 6.99718 14.6669 8 14.6669Z" fill="#292D32" stroke="white"/>
<path d="M3.90574 6.31139C3.94287 6.40102 3.9842 6.48913 4.02963 6.5756C3.98425 6.4896 3.94292 6.40142 3.90574 6.31139ZM11.0633 2.43119L11.0633 2.43118L11.0599 2.42818C10.8168 2.2186 10.5512 2.03744 10.2678 1.88618C10.5537 2.03856 10.8209 2.22064 11.0645 2.43016C11.2076 2.557 11.3392 2.69019 11.4588 2.82886C11.3383 2.68961 11.2063 2.55675 11.0633 2.43119ZM4.63267 2.7308C4.72723 2.62913 4.82846 2.53079 4.93624 2.43617C5.74483 1.7288 6.83178 1.3335 8 1.3335C6.85083 1.3335 5.75725 1.71659 4.9309 2.44374C4.82548 2.53533 4.72598 2.63115 4.63267 2.7308ZM8 8.66683C9.5654 8.66683 11.0221 8.01283 11.7921 6.87372C11.0659 7.95663 9.64093 8.66683 8 8.66683Z" fill="#292D32" stroke="white"/>
<path d="M8 12.0002C6.42096 12.0002 5.1422 11.3921 4.39344 10.4652C5.17728 11.4239 6.51427 12.0002 8 12.0002ZM8 12.0002C10.5619 12.0002 12.3333 10.3997 12.3333 8.4335C12.3333 10.5544 10.3532 12.0002 8 12.0002ZM11.0633 2.43119L11.0633 2.43118L11.0599 2.42818C10.8168 2.2186 10.5512 2.03744 10.2678 1.88618C10.5537 2.03856 10.8209 2.22065 11.0645 2.43017C11.2076 2.55699 11.3391 2.69017 11.4588 2.82882C11.3383 2.68958 11.2062 2.55673 11.0633 2.43119ZM5.224 2.20976C5.96802 1.66643 6.92982 1.3335 8 1.3335C6.96465 1.3335 5.98745 1.6582 5.224 2.20976Z" fill="#292D32" stroke="white"/>
</svg>
