<svg width="346" height="102" viewBox="0 0 346 102" fill="none" xmlns="http://www.w3.org/2000/svg">
<g filter="url(#filter0_d_1_1343)">
<rect x="23" y="9" width="300" height="56" rx="12" fill="#7B61FF"/>
<path d="M131.038 34.216C130.75 33.688 130.354 33.286 129.85 33.01C129.346 32.734 128.758 32.596 128.086 32.596C127.342 32.596 126.682 32.764 126.106 33.1C125.53 33.436 125.08 33.916 124.756 34.54C124.432 35.164 124.27 35.884 124.27 36.7C124.27 37.54 124.432 38.272 124.756 38.896C125.092 39.52 125.554 40 126.142 40.336C126.73 40.672 127.414 40.84 128.194 40.84C129.154 40.84 129.94 40.588 130.552 40.084C131.164 39.568 131.566 38.854 131.758 37.942H127.438V36.016H134.242V38.212C134.074 39.088 133.714 39.898 133.162 40.642C132.61 41.386 131.896 41.986 131.02 42.442C130.156 42.886 129.184 43.108 128.104 43.108C126.892 43.108 125.794 42.838 124.81 42.298C123.838 41.746 123.07 40.984 122.506 40.012C121.954 39.04 121.678 37.936 121.678 36.7C121.678 35.464 121.954 34.36 122.506 33.388C123.07 32.404 123.838 31.642 124.81 31.102C125.794 30.55 126.886 30.274 128.086 30.274C129.502 30.274 130.732 30.622 131.776 31.318C132.82 32.002 133.54 32.968 133.936 34.216H131.038ZM145.376 37.798C145.376 38.158 145.352 38.482 145.304 38.77H138.014C138.074 39.49 138.326 40.054 138.77 40.462C139.214 40.87 139.76 41.074 140.408 41.074C141.344 41.074 142.01 40.672 142.406 39.868H145.124C144.836 40.828 144.284 41.62 143.468 42.244C142.652 42.856 141.65 43.162 140.462 43.162C139.502 43.162 138.638 42.952 137.87 42.532C137.114 42.1 136.52 41.494 136.088 40.714C135.668 39.934 135.458 39.034 135.458 38.014C135.458 36.982 135.668 36.076 136.088 35.296C136.508 34.516 137.096 33.916 137.852 33.496C138.608 33.076 139.478 32.866 140.462 32.866C141.41 32.866 142.256 33.07 143 33.478C143.756 33.886 144.338 34.468 144.746 35.224C145.166 35.968 145.376 36.826 145.376 37.798ZM142.766 37.078C142.754 36.43 142.52 35.914 142.064 35.53C141.608 35.134 141.05 34.936 140.39 34.936C139.766 34.936 139.238 35.128 138.806 35.512C138.386 35.884 138.128 36.406 138.032 37.078H142.766ZM150.15 35.098V39.922C150.15 40.258 150.228 40.504 150.384 40.66C150.552 40.804 150.828 40.876 151.212 40.876H152.382V43H150.798C148.674 43 147.612 41.968 147.612 39.904V35.098H146.424V33.028H147.612V30.562H150.15V33.028H152.382V35.098H150.15ZM162.821 43.126C161.945 43.126 161.153 42.976 160.445 42.676C159.749 42.376 159.197 41.944 158.789 41.38C158.381 40.816 158.171 40.15 158.159 39.382H160.859C160.895 39.898 161.075 40.306 161.399 40.606C161.735 40.906 162.191 41.056 162.767 41.056C163.355 41.056 163.817 40.918 164.153 40.642C164.489 40.354 164.657 39.982 164.657 39.526C164.657 39.154 164.543 38.848 164.315 38.608C164.087 38.368 163.799 38.182 163.451 38.05C163.115 37.906 162.647 37.75 162.047 37.582C161.231 37.342 160.565 37.108 160.049 36.88C159.545 36.64 159.107 36.286 158.735 35.818C158.375 35.338 158.195 34.702 158.195 33.91C158.195 33.166 158.381 32.518 158.753 31.966C159.125 31.414 159.647 30.994 160.319 30.706C160.991 30.406 161.759 30.256 162.623 30.256C163.919 30.256 164.969 30.574 165.773 31.21C166.589 31.834 167.039 32.71 167.123 33.838H164.351C164.327 33.406 164.141 33.052 163.793 32.776C163.457 32.488 163.007 32.344 162.443 32.344C161.951 32.344 161.555 32.47 161.255 32.722C160.967 32.974 160.823 33.34 160.823 33.82C160.823 34.156 160.931 34.438 161.147 34.666C161.375 34.882 161.651 35.062 161.975 35.206C162.311 35.338 162.779 35.494 163.379 35.674C164.195 35.914 164.861 36.154 165.377 36.394C165.893 36.634 166.337 36.994 166.709 37.474C167.081 37.954 167.267 38.584 167.267 39.364C167.267 40.036 167.093 40.66 166.745 41.236C166.397 41.812 165.887 42.274 165.215 42.622C164.543 42.958 163.745 43.126 162.821 43.126ZM172.386 35.098V39.922C172.386 40.258 172.464 40.504 172.62 40.66C172.788 40.804 173.064 40.876 173.448 40.876H174.618V43H173.034C170.91 43 169.848 41.968 169.848 39.904V35.098H168.66V33.028H169.848V30.562H172.386V33.028H174.618V35.098H172.386ZM175.782 37.978C175.782 36.97 175.98 36.076 176.376 35.296C176.784 34.516 177.33 33.916 178.014 33.496C178.71 33.076 179.484 32.866 180.336 32.866C181.08 32.866 181.728 33.016 182.28 33.316C182.844 33.616 183.294 33.994 183.63 34.45V33.028H186.168V43H183.63V41.542C183.306 42.01 182.856 42.4 182.28 42.712C181.716 43.012 181.062 43.162 180.318 43.162C179.478 43.162 178.71 42.946 178.014 42.514C177.33 42.082 176.784 41.476 176.376 40.696C175.98 39.904 175.782 38.998 175.782 37.978ZM183.63 38.014C183.63 37.402 183.51 36.88 183.27 36.448C183.03 36.004 182.706 35.668 182.298 35.44C181.89 35.2 181.452 35.08 180.984 35.08C180.516 35.08 180.084 35.194 179.688 35.422C179.292 35.65 178.968 35.986 178.716 36.43C178.476 36.862 178.356 37.378 178.356 37.978C178.356 38.578 178.476 39.106 178.716 39.562C178.968 40.006 179.292 40.348 179.688 40.588C180.096 40.828 180.528 40.948 180.984 40.948C181.452 40.948 181.89 40.834 182.298 40.606C182.706 40.366 183.03 40.03 183.27 39.598C183.51 39.154 183.63 38.626 183.63 38.014ZM191.15 34.576C191.474 34.048 191.894 33.634 192.41 33.334C192.938 33.034 193.538 32.884 194.21 32.884V35.53H193.544C192.752 35.53 192.152 35.716 191.744 36.088C191.348 36.46 191.15 37.108 191.15 38.032V43H188.63V33.028H191.15V34.576ZM198.841 35.098V39.922C198.841 40.258 198.919 40.504 199.075 40.66C199.243 40.804 199.519 40.876 199.903 40.876H201.073V43H199.489C197.365 43 196.303 41.968 196.303 39.904V35.098H195.115V33.028H196.303V30.562H198.841V33.028H201.073V35.098H198.841ZM212.156 37.798C212.156 38.158 212.132 38.482 212.084 38.77H204.794C204.854 39.49 205.106 40.054 205.55 40.462C205.994 40.87 206.54 41.074 207.188 41.074C208.124 41.074 208.79 40.672 209.186 39.868H211.904C211.616 40.828 211.064 41.62 210.248 42.244C209.432 42.856 208.43 43.162 207.242 43.162C206.282 43.162 205.418 42.952 204.65 42.532C203.894 42.1 203.3 41.494 202.868 40.714C202.448 39.934 202.238 39.034 202.238 38.014C202.238 36.982 202.448 36.076 202.868 35.296C203.288 34.516 203.876 33.916 204.632 33.496C205.388 33.076 206.258 32.866 207.242 32.866C208.19 32.866 209.036 33.07 209.78 33.478C210.536 33.886 211.118 34.468 211.526 35.224C211.946 35.968 212.156 36.826 212.156 37.798ZM209.546 37.078C209.534 36.43 209.3 35.914 208.844 35.53C208.388 35.134 207.83 34.936 207.17 34.936C206.546 34.936 206.018 35.128 205.586 35.512C205.166 35.884 204.908 36.406 204.812 37.078H209.546ZM213.347 37.978C213.347 36.97 213.545 36.076 213.941 35.296C214.349 34.516 214.901 33.916 215.597 33.496C216.293 33.076 217.067 32.866 217.919 32.866C218.567 32.866 219.185 33.01 219.773 33.298C220.361 33.574 220.829 33.946 221.177 34.414V29.68H223.733V43H221.177V41.524C220.865 42.016 220.427 42.412 219.863 42.712C219.299 43.012 218.645 43.162 217.901 43.162C217.061 43.162 216.293 42.946 215.597 42.514C214.901 42.082 214.349 41.476 213.941 40.696C213.545 39.904 213.347 38.998 213.347 37.978ZM221.195 38.014C221.195 37.402 221.075 36.88 220.835 36.448C220.595 36.004 220.271 35.668 219.863 35.44C219.455 35.2 219.017 35.08 218.549 35.08C218.081 35.08 217.649 35.194 217.253 35.422C216.857 35.65 216.533 35.986 216.281 36.43C216.041 36.862 215.921 37.378 215.921 37.978C215.921 38.578 216.041 39.106 216.281 39.562C216.533 40.006 216.857 40.348 217.253 40.588C217.661 40.828 218.093 40.948 218.549 40.948C219.017 40.948 219.455 40.834 219.863 40.606C220.271 40.366 220.595 40.03 220.835 39.598C221.075 39.154 221.195 38.626 221.195 38.014Z" fill="white"/>
</g>
<defs>
<filter id="filter0_d_1_1343" x="0" y="0" width="346" height="102" filterUnits="userSpaceOnUse" color-interpolation-filters="sRGB">
<feFlood flood-opacity="0" result="BackgroundImageFix"/>
<feColorMatrix in="SourceAlpha" type="matrix" values="0 0 0 0 0 0 0 0 0 0 0 0 0 0 0 0 0 0 127 0" result="hardAlpha"/>
<feOffset dy="14"/>
<feGaussianBlur stdDeviation="11.5"/>
<feColorMatrix type="matrix" values="0 0 0 0 0.109804 0 0 0 0 0.145098 0 0 0 0 0.172549 0 0 0 0.08 0"/>
<feBlend mode="normal" in2="BackgroundImageFix" result="effect1_dropShadow_1_1343"/>
<feBlend mode="normal" in="SourceGraphic" in2="effect1_dropShadow_1_1343" result="shape"/>
</filter>
</defs>
</svg>
