<svg width="137" height="137" viewBox="0 0 137 137" fill="none" xmlns="http://www.w3.org/2000/svg">
<path d="M112.958 55.8052C115.937 55.0545 118.911 57.0661 119.315 60.11C121.298 75.2646 116.142 90.7887 105.216 101.715C95.6039 111.327 82.8186 116.488 69.224 116.23C55.6235 115.978 43.0376 110.336 33.7595 100.343C16.476 81.7218 16.2531 52.3626 33.2435 33.4956C33.83 32.8387 34.434 32.1994 35.0616 31.5719C47.448 19.1854 65.3592 14.2121 82.4433 18.5696C87.3052 19.8071 90.9942 23.4374 92.3255 28.2993C93.6744 33.214 92.3255 38.2929 88.7362 41.8822C85.147 45.4714 80.2616 46.7089 75.5463 45.5477C68.186 43.7472 60.6145 45.8644 55.2717 51.2072C53.477 53.0019 52.046 55.0546 51.0079 57.2656C49.5828 60.2742 48.8907 63.5937 48.9904 67.0481C49.184 73.0243 51.7645 78.502 56.2804 82.4784C64.2565 89.5161 76.7251 89.4692 84.666 82.3845C85.5575 81.5986 86.361 80.7482 87.0823 79.8392C90.3901 75.7573 92.0733 70.6138 91.8387 65.3824C91.7273 62.9603 93.4046 60.8138 95.7681 60.2449C98.8764 59.4942 101.961 61.7345 102.102 64.925C102.53 74.3614 98.724 83.6102 91.5161 90.0557C82.1442 98.4306 68.9953 100.26 57.9636 95.551C57.9518 95.5393 57.9225 95.5334 57.8932 95.5276C54.9021 94.2373 52.0577 92.4603 49.5007 90.2082L49.4831 90.1906C42.8265 84.3199 39.0144 76.2148 38.7329 67.3706C38.4573 58.6614 41.8354 50.1105 48.0052 43.9407C55.9051 36.0409 67.1186 32.909 77.9919 35.5717C79.2587 35.8884 80.5666 35.5306 81.4756 34.6216C82.8362 33.2609 82.5841 31.6481 82.414 31.0206C82.2439 30.4282 81.675 28.9796 79.898 28.528C65.6759 24.8977 50.7089 29.4371 40.8795 40.3691C27.408 55.3185 27.5898 78.5959 41.2782 93.3517C48.6444 101.281 58.6263 105.75 69.4058 105.961C80.1912 106.166 90.3256 102.073 97.9498 94.4484C106.63 85.7685 110.717 73.4113 109.116 61.3709C108.776 58.8138 110.465 56.4327 112.964 55.7993L112.958 55.8052Z" fill="url(#paint0_linear_157_1592)"/>
<path style="mix-blend-mode:multiply" d="M47.5067 34.5044C45.1197 36.1876 42.8852 38.1406 40.8736 40.3751C32.1526 50.0462 29.1557 63.2127 31.8359 75.3C25.5019 89.833 34.2874 100.906 34.2874 100.906C34.1056 100.724 33.9238 100.542 33.7537 100.349C16.4701 81.7279 16.2473 52.3687 33.2377 33.5016C33.8241 32.8447 34.4282 32.2055 35.0557 31.5779C36.6627 29.971 38.3635 28.493 40.1405 27.1383L47.5008 34.4986L47.5067 34.5044Z" fill="url(#paint1_linear_157_1592)"/>
<path style="mix-blend-mode:multiply" d="M87.0705 79.839C86.3491 80.748 85.5457 81.5984 84.6542 82.3843C76.7133 89.469 64.2447 89.5159 56.2686 82.4782C51.7586 78.5077 49.178 73.03 48.9786 67.0479C48.8731 63.5994 49.571 60.274 50.9961 57.2654C50.4918 57.6759 50.0109 58.1217 49.5417 58.5909C40.8207 67.3118 40.7972 81.4342 49.4771 90.1845L49.5416 90.249C51.9755 92.6829 54.8493 94.4424 57.8931 95.5274C57.9224 95.5332 57.9459 95.5449 57.9635 95.5508C65.8282 98.3014 74.9186 96.5302 81.1998 90.249C84.1792 87.2697 86.1439 83.6511 87.0823 79.839L87.0705 79.839Z" fill="url(#paint2_linear_157_1592)"/>
<path d="M61.3762 58.0631C66.4129 53.0263 74.579 53.0263 79.6157 58.063C84.6524 63.0997 84.6524 71.2659 79.6157 76.3026C74.579 81.3393 66.4128 81.3393 61.3761 76.3026C56.3394 71.2659 56.3394 63.0998 61.3762 58.0631Z" fill="url(#paint3_linear_157_1592)"/>
<path d="M79.6166 65.7582C74.5788 60.7203 66.415 60.7203 61.3771 65.7582C58.5117 68.6235 58.5176 73.4436 61.3829 76.3089C66.4149 81.3409 74.5846 81.3468 79.6166 76.3148C82.4815 73.4499 82.4815 68.6231 79.6166 65.7582Z" fill="url(#paint4_linear_157_1592)"/>
<defs>
<linearGradient id="paint0_linear_157_1592" x1="81.4047" y1="129.804" x2="59.9985" y2="5.16857" gradientUnits="userSpaceOnUse">
<stop stop-color="#5315B2"/>
<stop offset="0.45" stop-color="#B339ED"/>
<stop offset="1" stop-color="#F8624F"/>
</linearGradient>
<linearGradient id="paint1_linear_157_1592" x1="31.355" y1="52.439" x2="41.683" y2="70.5906" gradientUnits="userSpaceOnUse">
<stop stop-color="white" stop-opacity="0"/>
<stop offset="1" stop-color="#5315B2" stop-opacity="0.26"/>
</linearGradient>
<linearGradient id="paint2_linear_157_1592" x1="74.3439" y1="65.4468" x2="45.2779" y2="94.5128" gradientUnits="userSpaceOnUse">
<stop stop-color="#5315B2" stop-opacity="0.69"/>
<stop offset="1" stop-color="#3232B8" stop-opacity="0"/>
</linearGradient>
<linearGradient id="paint3_linear_157_1592" x1="71.2114" y1="54.8081" x2="69.9798" y2="75.9918" gradientUnits="userSpaceOnUse">
<stop stop-color="#5315B2"/>
<stop offset="0.45" stop-color="#C564FD"/>
<stop offset="1" stop-color="#FF405E"/>
</linearGradient>
<linearGradient id="paint4_linear_157_1592" x1="75.0934" y1="48.5394" x2="77.3855" y2="77.7078" gradientUnits="userSpaceOnUse">
<stop stop-color="#FF405E"/>
<stop offset="0.45" stop-color="#B339ED"/>
<stop offset="1" stop-color="#512BEE"/>
</linearGradient>
</defs>
</svg>
