<svg width="28" height="28" viewBox="0 0 28 28" fill="none" xmlns="http://www.w3.org/2000/svg">
<path d="M24.72 7.09358L17.04 1.72024C14.9467 0.253576 11.7333 0.333576 9.72 1.89358L3.04 7.10691C1.70667 8.14691 0.653336 10.2802 0.653336 11.9602V21.1602C0.653336 24.5602 3.41334 27.3336 6.81334 27.3336H21.1867C24.5867 27.3336 27.3467 24.5736 27.3467 21.1736V12.1336C27.3467 10.3336 26.1867 8.12024 24.72 7.09358ZM15 22.0002C15 22.5469 14.5467 23.0002 14 23.0002C13.4533 23.0002 13 22.5469 13 22.0002V18.0002C13 17.4536 13.4533 17.0002 14 17.0002C14.5467 17.0002 15 17.4536 15 18.0002V22.0002Z" fill="url(#paint0_linear_228_1329)"/>
<defs>
<linearGradient id="paint0_linear_228_1329" x1="-4.99998" y1="-2" x2="64.5" y2="44" gradientUnits="userSpaceOnUse">
<stop stop-color="#7B61FF"/>
<stop offset="0.760417" stop-color="#F14985"/>
</linearGradient>
</defs>
</svg>
