<svg width="373" height="102" viewBox="0 0 373 102" fill="none" xmlns="http://www.w3.org/2000/svg">
<g filter="url(#filter0_d_173_1534)">
<rect x="23.5" y="9" width="326" height="56" rx="12" fill="#7B61FF"/>
<path d="M163.693 41.002H167.833V43H161.173V30.436H163.693V41.002ZM173.862 43.162C172.902 43.162 172.038 42.952 171.27 42.532C170.502 42.1 169.896 41.494 169.452 40.714C169.02 39.934 168.804 39.034 168.804 38.014C168.804 36.994 169.026 36.094 169.47 35.314C169.926 34.534 170.544 33.934 171.324 33.514C172.104 33.082 172.974 32.866 173.934 32.866C174.894 32.866 175.764 33.082 176.544 33.514C177.324 33.934 177.936 34.534 178.38 35.314C178.836 36.094 179.064 36.994 179.064 38.014C179.064 39.034 178.83 39.934 178.362 40.714C177.906 41.494 177.282 42.1 176.49 42.532C175.71 42.952 174.834 43.162 173.862 43.162ZM173.862 40.966C174.318 40.966 174.744 40.858 175.14 40.642C175.548 40.414 175.872 40.078 176.112 39.634C176.352 39.19 176.472 38.65 176.472 38.014C176.472 37.066 176.22 36.34 175.716 35.836C175.224 35.32 174.618 35.062 173.898 35.062C173.178 35.062 172.572 35.32 172.08 35.836C171.6 36.34 171.36 37.066 171.36 38.014C171.36 38.962 171.594 39.694 172.062 40.21C172.542 40.714 173.142 40.966 173.862 40.966ZM184.819 32.866C185.563 32.866 186.217 33.016 186.781 33.316C187.345 33.604 187.789 33.982 188.113 34.45V33.028H190.651V43.072C190.651 43.996 190.465 44.818 190.093 45.538C189.721 46.27 189.163 46.846 188.419 47.266C187.675 47.698 186.775 47.914 185.719 47.914C184.303 47.914 183.139 47.584 182.227 46.924C181.327 46.264 180.817 45.364 180.697 44.224H183.199C183.331 44.68 183.613 45.04 184.045 45.304C184.489 45.58 185.023 45.718 185.647 45.718C186.379 45.718 186.973 45.496 187.429 45.052C187.885 44.62 188.113 43.96 188.113 43.072V41.524C187.789 41.992 187.339 42.382 186.763 42.694C186.199 43.006 185.551 43.162 184.819 43.162C183.979 43.162 183.211 42.946 182.515 42.514C181.819 42.082 181.267 41.476 180.859 40.696C180.463 39.904 180.265 38.998 180.265 37.978C180.265 36.97 180.463 36.076 180.859 35.296C181.267 34.516 181.813 33.916 182.497 33.496C183.193 33.076 183.967 32.866 184.819 32.866ZM188.113 38.014C188.113 37.402 187.993 36.88 187.753 36.448C187.513 36.004 187.189 35.668 186.781 35.44C186.373 35.2 185.935 35.08 185.467 35.08C184.999 35.08 184.567 35.194 184.171 35.422C183.775 35.65 183.451 35.986 183.199 36.43C182.959 36.862 182.839 37.378 182.839 37.978C182.839 38.578 182.959 39.106 183.199 39.562C183.451 40.006 183.775 40.348 184.171 40.588C184.579 40.828 185.011 40.948 185.467 40.948C185.935 40.948 186.373 40.834 186.781 40.606C187.189 40.366 187.513 40.03 187.753 39.598C187.993 39.154 188.113 38.626 188.113 38.014ZM199.921 30.436V43H197.401V30.436H199.921ZM207.937 32.884C209.125 32.884 210.085 33.262 210.817 34.018C211.549 34.762 211.915 35.806 211.915 37.15V43H209.395V37.492C209.395 36.7 209.197 36.094 208.801 35.674C208.405 35.242 207.865 35.026 207.181 35.026C206.485 35.026 205.933 35.242 205.525 35.674C205.129 36.094 204.931 36.7 204.931 37.492V43H202.411V33.028H204.931V34.27C205.267 33.838 205.693 33.502 206.209 33.262C206.737 33.01 207.313 32.884 207.937 32.884Z" fill="white"/>
</g>
<defs>
<filter id="filter0_d_173_1534" x="0.5" y="0" width="372" height="102" filterUnits="userSpaceOnUse" color-interpolation-filters="sRGB">
<feFlood flood-opacity="0" result="BackgroundImageFix"/>
<feColorMatrix in="SourceAlpha" type="matrix" values="0 0 0 0 0 0 0 0 0 0 0 0 0 0 0 0 0 0 127 0" result="hardAlpha"/>
<feOffset dy="14"/>
<feGaussianBlur stdDeviation="11.5"/>
<feColorMatrix type="matrix" values="0 0 0 0 0.109804 0 0 0 0 0.145098 0 0 0 0 0.172549 0 0 0 0.08 0"/>
<feBlend mode="normal" in2="BackgroundImageFix" result="effect1_dropShadow_173_1534"/>
<feBlend mode="normal" in="SourceGraphic" in2="effect1_dropShadow_173_1534" result="shape"/>
</filter>
</defs>
</svg>
