<svg width="89" height="48" viewBox="0 0 89 48" fill="none" xmlns="http://www.w3.org/2000/svg">
<g filter="url(#filter0_d_1_1388)">
<rect x="12" y="8" width="65" height="24" rx="12" fill="#2F3C50" fill-opacity="0.2"/>
<path d="M27.1768 22.0001C26.9523 22.0009 26.7302 22.0471 26.524 22.1359C26.3178 22.2247 26.1317 22.3542 25.9768 22.5167L21.9134 20.4834C22.0134 20.1803 22.0134 19.8532 21.9134 19.5501L25.9834 17.4801C26.275 17.7873 26.6703 17.9751 27.0926 18.0071C27.5149 18.0391 27.934 17.9129 28.2685 17.653C28.6029 17.3932 28.8288 17.0183 28.9022 16.6012C28.9757 16.1841 28.8914 15.7546 28.6658 15.3962C28.4402 15.0378 28.0894 14.776 27.6816 14.6618C27.2737 14.5476 26.838 14.5892 26.4591 14.7784C26.0802 14.9675 25.7851 15.2908 25.6313 15.6854C25.4775 16.08 25.4759 16.5177 25.6268 16.9134L21.5968 18.9634C21.3791 18.6972 21.0845 18.5049 20.7532 18.4127C20.4219 18.3206 20.0703 18.3331 19.7464 18.4487C19.4226 18.5642 19.1424 18.7771 18.9443 19.0581C18.7462 19.3391 18.6398 19.6746 18.6398 20.0184C18.6398 20.3623 18.7462 20.6977 18.9443 20.9787C19.1424 21.2597 19.4226 21.4726 19.7464 21.5882C20.0703 21.7037 20.4219 21.7163 20.7532 21.6241C21.0845 21.532 21.3791 21.3396 21.5968 21.0734L25.6168 23.0967C25.5488 23.2791 25.5139 23.4721 25.5134 23.6667C25.5134 23.9964 25.6112 24.3186 25.7943 24.5927C25.9775 24.8668 26.2377 25.0804 26.5423 25.2065C26.8468 25.3327 27.1819 25.3657 27.5052 25.3014C27.8285 25.2371 28.1255 25.0783 28.3586 24.8453C28.5917 24.6122 28.7504 24.3152 28.8147 23.9919C28.879 23.6686 28.846 23.3335 28.7199 23.0289C28.5938 22.7244 28.3801 22.4641 28.106 22.281C27.832 22.0978 27.5097 22.0001 27.1801 22.0001H27.1768ZM27.1768 15.3334C27.3745 15.3334 27.5679 15.3921 27.7323 15.5019C27.8968 15.6118 28.025 15.768 28.1006 15.9507C28.1763 16.1335 28.1961 16.3345 28.1575 16.5285C28.119 16.7225 28.0237 16.9007 27.8839 17.0405C27.744 17.1804 27.5658 17.2756 27.3719 17.3142C27.1779 17.3528 26.9768 17.333 26.7941 17.2573C26.6114 17.1816 26.4552 17.0534 26.3453 16.889C26.2354 16.7245 26.1768 16.5312 26.1768 16.3334C26.1768 16.0682 26.2821 15.8138 26.4697 15.6263C26.6572 15.4388 26.9115 15.3334 27.1768 15.3334ZM20.3334 21.0001C20.1357 21.0001 19.9423 20.9414 19.7779 20.8316C19.6134 20.7217 19.4852 20.5655 19.4096 20.3828C19.3339 20.2 19.3141 19.999 19.3526 19.805C19.3912 19.611 19.4865 19.4328 19.6263 19.293C19.7662 19.1531 19.9444 19.0579 20.1383 19.0193C20.3323 18.9807 20.5334 19.0005 20.7161 19.0762C20.8988 19.1519 21.055 19.2801 21.1649 19.4445C21.2748 19.609 21.3334 19.8023 21.3334 20.0001C21.3334 20.2653 21.2281 20.5197 21.0405 20.7072C20.853 20.8947 20.5986 21.0001 20.3334 21.0001ZM27.1768 24.6667C26.979 24.6667 26.7856 24.6081 26.6212 24.4982C26.4567 24.3883 26.3286 24.2322 26.2529 24.0494C26.1772 23.8667 26.1574 23.6656 26.196 23.4717C26.2346 23.2777 26.3298 23.0995 26.4697 22.9596C26.6095 22.8198 26.7877 22.7245 26.9817 22.686C27.1757 22.6474 27.3767 22.6672 27.5594 22.7429C27.7422 22.8186 27.8984 22.9467 28.0082 23.1112C28.1181 23.2756 28.1768 23.469 28.1768 23.6667C28.1768 23.932 28.0714 24.1863 27.8839 24.3739C27.6963 24.5614 27.442 24.6667 27.1768 24.6667Z" fill="white"/>
<path d="M36.98 23.07C36.52 23.07 36.1067 22.99 35.74 22.83C35.38 22.6633 35.0967 22.4367 34.89 22.15C34.6833 21.8567 34.5767 21.52 34.57 21.14H35.54C35.5733 21.4667 35.7067 21.7433 35.94 21.97C36.18 22.19 36.5267 22.3 36.98 22.3C37.4133 22.3 37.7533 22.1933 38 21.98C38.2533 21.76 38.38 21.48 38.38 21.14C38.38 20.8733 38.3067 20.6567 38.16 20.49C38.0133 20.3233 37.83 20.1967 37.61 20.11C37.39 20.0233 37.0933 19.93 36.72 19.83C36.26 19.71 35.89 19.59 35.61 19.47C35.3367 19.35 35.1 19.1633 34.9 18.91C34.7067 18.65 34.61 18.3033 34.61 17.87C34.61 17.49 34.7067 17.1533 34.9 16.86C35.0933 16.5667 35.3633 16.34 35.71 16.18C36.0633 16.02 36.4667 15.94 36.92 15.94C37.5733 15.94 38.1067 16.1033 38.52 16.43C38.94 16.7567 39.1767 17.19 39.23 17.73H38.23C38.1967 17.4633 38.0567 17.23 37.81 17.03C37.5633 16.8233 37.2367 16.72 36.83 16.72C36.45 16.72 36.14 16.82 35.9 17.02C35.66 17.2133 35.54 17.4867 35.54 17.84C35.54 18.0933 35.61 18.3 35.75 18.46C35.8967 18.62 36.0733 18.7433 36.28 18.83C36.4933 18.91 36.79 19.0033 37.17 19.11C37.63 19.2367 38 19.3633 38.28 19.49C38.56 19.61 38.8 19.8 39 20.06C39.2 20.3133 39.3 20.66 39.3 21.1C39.3 21.44 39.21 21.76 39.03 22.06C38.85 22.36 38.5833 22.6033 38.23 22.79C37.8767 22.9767 37.46 23.07 36.98 23.07ZM43.3591 17.42C43.7725 17.42 44.1458 17.51 44.4791 17.69C44.8125 17.8633 45.0725 18.1267 45.2591 18.48C45.4525 18.8333 45.5491 19.2633 45.5491 19.77V23H44.6491V19.9C44.6491 19.3533 44.5125 18.9367 44.2391 18.65C43.9658 18.3567 43.5925 18.21 43.1191 18.21C42.6391 18.21 42.2558 18.36 41.9691 18.66C41.6891 18.96 41.5491 19.3967 41.5491 19.97V23H40.6391V15.6H41.5491V18.3C41.7291 18.02 41.9758 17.8033 42.2891 17.65C42.6091 17.4967 42.9658 17.42 43.3591 17.42ZM46.6956 20.24C46.6956 19.68 46.809 19.19 47.0356 18.77C47.2623 18.3433 47.5723 18.0133 47.9656 17.78C48.3656 17.5467 48.809 17.43 49.2956 17.43C49.7756 17.43 50.1923 17.5333 50.5456 17.74C50.899 17.9467 51.1623 18.2067 51.3356 18.52V17.52H52.2556V23H51.3356V21.98C51.1556 22.3 50.8856 22.5667 50.5256 22.78C50.1723 22.9867 49.759 23.09 49.2856 23.09C48.799 23.09 48.359 22.97 47.9656 22.73C47.5723 22.49 47.2623 22.1533 47.0356 21.72C46.809 21.2867 46.6956 20.7933 46.6956 20.24ZM51.3356 20.25C51.3356 19.8367 51.2523 19.4767 51.0856 19.17C50.919 18.8633 50.6923 18.63 50.4056 18.47C50.1256 18.3033 49.8156 18.22 49.4756 18.22C49.1356 18.22 48.8256 18.3 48.5456 18.46C48.2656 18.62 48.0423 18.8533 47.8756 19.16C47.709 19.4667 47.6256 19.8267 47.6256 20.24C47.6256 20.66 47.709 21.0267 47.8756 21.34C48.0423 21.6467 48.2656 21.8833 48.5456 22.05C48.8256 22.21 49.1356 22.29 49.4756 22.29C49.8156 22.29 50.1256 22.21 50.4056 22.05C50.6923 21.8833 50.919 21.6467 51.0856 21.34C51.2523 21.0267 51.3356 20.6633 51.3356 20.25ZM54.7034 18.41C54.8634 18.0967 55.0901 17.8533 55.3834 17.68C55.6834 17.5067 56.0468 17.42 56.4734 17.42V18.36H56.2334C55.2134 18.36 54.7034 18.9133 54.7034 20.02V23H53.7934V17.52H54.7034V18.41ZM62.5239 20.05C62.5239 20.2233 62.5139 20.4067 62.4939 20.6H58.1139C58.1472 21.14 58.3306 21.5633 58.6639 21.87C59.0039 22.17 59.4139 22.32 59.8939 22.32C60.2872 22.32 60.6139 22.23 60.8739 22.05C61.1406 21.8633 61.3272 21.6167 61.4339 21.31H62.4139C62.2672 21.8367 61.9739 22.2667 61.5339 22.6C61.0939 22.9267 60.5472 23.09 59.8939 23.09C59.3739 23.09 58.9072 22.9733 58.4939 22.74C58.0872 22.5067 57.7672 22.1767 57.5339 21.75C57.3006 21.3167 57.1839 20.8167 57.1839 20.25C57.1839 19.6833 57.2972 19.1867 57.5239 18.76C57.7506 18.3333 58.0672 18.0067 58.4739 17.78C58.8872 17.5467 59.3606 17.43 59.8939 17.43C60.4139 17.43 60.8739 17.5433 61.2739 17.77C61.6739 17.9967 61.9806 18.31 62.1939 18.71C62.4139 19.1033 62.5239 19.55 62.5239 20.05ZM61.5839 19.86C61.5839 19.5133 61.5072 19.2167 61.3539 18.97C61.2006 18.7167 60.9906 18.5267 60.7239 18.4C60.4639 18.2667 60.1739 18.2 59.8539 18.2C59.3939 18.2 59.0006 18.3467 58.6739 18.64C58.3539 18.9333 58.1706 19.34 58.1239 19.86H61.5839Z" fill="white"/>
<rect x="12.5" y="8.5" width="64" height="23" rx="11.5" stroke="url(#paint0_linear_1_1388)"/>
</g>
<defs>
<filter id="filter0_d_1_1388" x="0" y="0" width="89" height="48" filterUnits="userSpaceOnUse" color-interpolation-filters="sRGB">
<feFlood flood-opacity="0" result="BackgroundImageFix"/>
<feColorMatrix in="SourceAlpha" type="matrix" values="0 0 0 0 0 0 0 0 0 0 0 0 0 0 0 0 0 0 127 0" result="hardAlpha"/>
<feOffset dy="4"/>
<feGaussianBlur stdDeviation="6"/>
<feColorMatrix type="matrix" values="0 0 0 0 0.109804 0 0 0 0 0.145098 0 0 0 0 0.172549 0 0 0 0.05 0"/>
<feBlend mode="normal" in2="BackgroundImageFix" result="effect1_dropShadow_1_1388"/>
<feBlend mode="normal" in="SourceGraphic" in2="effect1_dropShadow_1_1388" result="shape"/>
</filter>
<linearGradient id="paint0_linear_1_1388" x1="15.6576" y1="8.87129" x2="35.2445" y2="63.2889" gradientUnits="userSpaceOnUse">
<stop stop-color="white" stop-opacity="0.17"/>
<stop offset="1" stop-color="white" stop-opacity="0"/>
</linearGradient>
</defs>
</svg>
