<svg width="247" height="71" viewBox="0 0 247 71" fill="none" xmlns="http://www.w3.org/2000/svg">
<path d="M36.4159 23C35.8559 23 35.3559 22.83 34.9159 22.49C34.4759 22.13 34.2559 21.69 34.2559 21.17V3.83C34.2559 3.31 34.4259 2.88 34.7659 2.54C35.1259 2.18 35.5659 2 36.0859 2H44.7259C45.7659 2 46.7359 2.28 47.6359 2.84C48.5559 3.38 49.2959 4.14 49.8559 5.12C50.4159 6.08 50.6959 7.19 50.6959 8.45C50.6959 9.21 50.5359 9.95 50.2159 10.67C49.9159 11.39 49.4959 12.04 48.9559 12.62C48.4359 13.2 47.8459 13.65 47.1859 13.97L47.2159 13.28C47.7759 13.58 48.2359 13.94 48.5959 14.36C48.9759 14.76 49.2659 15.2 49.4659 15.68C49.6859 16.14 49.8159 16.64 49.8559 17.18C49.9359 17.68 49.9859 18.12 50.0059 18.5C50.0459 18.88 50.1059 19.2 50.1859 19.46C50.2859 19.72 50.4659 19.92 50.7259 20.06C51.1659 20.32 51.4359 20.7 51.5359 21.2C51.6559 21.68 51.5459 22.11 51.2059 22.49C50.9859 22.75 50.7059 22.92 50.3659 23C50.0259 23.06 49.6859 23.06 49.3459 23C49.0059 22.92 48.7259 22.82 48.5059 22.7C48.1659 22.5 47.8259 22.21 47.4859 21.83C47.1459 21.43 46.8659 20.9 46.6459 20.24C46.4459 19.58 46.3459 18.73 46.3459 17.69C46.3459 17.35 46.2859 17.04 46.1659 16.76C46.0459 16.46 45.8759 16.21 45.6559 16.01C45.4359 15.79 45.1559 15.63 44.8159 15.53C44.4759 15.41 44.0759 15.35 43.6159 15.35H37.5559L38.0059 14.66V21.17C38.0059 21.69 37.8659 22.13 37.5859 22.49C37.3059 22.83 36.9159 23 36.4159 23ZM37.5859 12.26H44.5759C44.9359 12.26 45.2859 12.1 45.6259 11.78C45.9659 11.44 46.2459 10.99 46.4659 10.43C46.6859 9.85 46.7959 9.22 46.7959 8.54C46.7959 7.66 46.5559 6.93 46.0759 6.35C45.6159 5.75 45.1159 5.45 44.5759 5.45H37.6459L38.0059 4.49V12.98L37.5859 12.26ZM66.1686 6.95C66.6886 6.95 67.1186 7.13 67.4586 7.49C67.7986 7.83 67.9686 8.26 67.9686 8.78V16.4C67.9686 18.52 67.3786 20.2 66.1986 21.44C65.0186 22.68 63.3186 23.3 61.0986 23.3C58.8786 23.3 57.1786 22.68 55.9986 21.44C54.8386 20.2 54.2586 18.52 54.2586 16.4V8.78C54.2586 8.26 54.4286 7.83 54.7686 7.49C55.1086 7.13 55.5386 6.95 56.0586 6.95C56.5786 6.95 57.0086 7.13 57.3486 7.49C57.6886 7.83 57.8586 8.26 57.8586 8.78V16.4C57.8586 17.62 58.1286 18.53 58.6686 19.13C59.2086 19.71 60.0186 20 61.0986 20C62.1986 20 63.0186 19.71 63.5586 19.13C64.0986 18.53 64.3686 17.62 64.3686 16.4V8.78C64.3686 8.26 64.5386 7.83 64.8786 7.49C65.2186 7.13 65.6486 6.95 66.1686 6.95ZM80.446 6.65C81.926 6.65 83.046 6.96 83.806 7.58C84.586 8.2 85.116 9.03 85.396 10.07C85.696 11.09 85.846 12.23 85.846 13.49V21.17C85.846 21.69 85.676 22.13 85.336 22.49C84.996 22.83 84.566 23 84.046 23C83.526 23 83.096 22.83 82.756 22.49C82.416 22.13 82.246 21.69 82.246 21.17V13.49C82.246 12.83 82.156 12.24 81.976 11.72C81.816 11.18 81.516 10.75 81.076 10.43C80.636 10.11 80.006 9.95 79.186 9.95C78.386 9.95 77.706 10.11 77.146 10.43C76.606 10.75 76.186 11.18 75.886 11.72C75.606 12.24 75.466 12.83 75.466 13.49V21.17C75.466 21.69 75.296 22.13 74.956 22.49C74.616 22.83 74.186 23 73.666 23C73.146 23 72.716 22.83 72.376 22.49C72.036 22.13 71.866 21.69 71.866 21.17V8.78C71.866 8.26 72.036 7.83 72.376 7.49C72.716 7.13 73.146 6.95 73.666 6.95C74.186 6.95 74.616 7.13 74.956 7.49C75.296 7.83 75.466 8.26 75.466 8.78V10.07L75.016 9.98C75.196 9.64 75.456 9.28 75.796 8.9C76.136 8.5 76.536 8.13 76.996 7.79C77.456 7.45 77.976 7.18 78.556 6.98C79.136 6.76 79.766 6.65 80.446 6.65ZM98.3171 6.65C99.7971 6.65 100.917 6.96 101.677 7.58C102.457 8.2 102.987 9.03 103.267 10.07C103.567 11.09 103.717 12.23 103.717 13.49V21.17C103.717 21.69 103.547 22.13 103.207 22.49C102.867 22.83 102.437 23 101.917 23C101.397 23 100.967 22.83 100.627 22.49C100.287 22.13 100.117 21.69 100.117 21.17V13.49C100.117 12.83 100.027 12.24 99.8471 11.72C99.6871 11.18 99.3871 10.75 98.9471 10.43C98.5071 10.11 97.8771 9.95 97.0571 9.95C96.2571 9.95 95.5771 10.11 95.0171 10.43C94.4771 10.75 94.0571 11.18 93.7571 11.72C93.4771 12.24 93.3371 12.83 93.3371 13.49V21.17C93.3371 21.69 93.1671 22.13 92.8271 22.49C92.4871 22.83 92.0571 23 91.5371 23C91.0171 23 90.5871 22.83 90.2471 22.49C89.9071 22.13 89.7371 21.69 89.7371 21.17V8.78C89.7371 8.26 89.9071 7.83 90.2471 7.49C90.5871 7.13 91.0171 6.95 91.5371 6.95C92.0571 6.95 92.4871 7.13 92.8271 7.49C93.1671 7.83 93.3371 8.26 93.3371 8.78V10.07L92.8871 9.98C93.0671 9.64 93.3271 9.28 93.6671 8.9C94.0071 8.5 94.4071 8.13 94.8671 7.79C95.3271 7.45 95.8471 7.18 96.4271 6.98C97.0071 6.76 97.6371 6.65 98.3171 6.65ZM110.998 21.17C110.998 21.69 110.828 22.13 110.488 22.49C110.148 22.83 109.718 23 109.198 23C108.678 23 108.248 22.83 107.908 22.49C107.568 22.13 107.398 21.69 107.398 21.17V8.78C107.398 8.26 107.568 7.83 107.908 7.49C108.248 7.13 108.678 6.95 109.198 6.95C109.718 6.95 110.148 7.13 110.488 7.49C110.828 7.83 110.998 8.26 110.998 8.78V21.17ZM109.168 5C108.488 5 108.008 4.89 107.728 4.67C107.448 4.45 107.308 4.06 107.308 3.5V2.93C107.308 2.35 107.458 1.96 107.758 1.76C108.078 1.54 108.558 1.43 109.198 1.43C109.898 1.43 110.388 1.54 110.668 1.76C110.948 1.98 111.088 2.37 111.088 2.93V3.5C111.088 4.08 110.938 4.48 110.638 4.7C110.338 4.9 109.848 5 109.168 5ZM123.278 6.65C124.758 6.65 125.878 6.96 126.638 7.58C127.418 8.2 127.948 9.03 128.228 10.07C128.528 11.09 128.678 12.23 128.678 13.49V21.17C128.678 21.69 128.508 22.13 128.168 22.49C127.828 22.83 127.398 23 126.878 23C126.358 23 125.928 22.83 125.588 22.49C125.248 22.13 125.078 21.69 125.078 21.17V13.49C125.078 12.83 124.988 12.24 124.808 11.72C124.648 11.18 124.348 10.75 123.908 10.43C123.468 10.11 122.838 9.95 122.018 9.95C121.218 9.95 120.538 10.11 119.978 10.43C119.438 10.75 119.018 11.18 118.718 11.72C118.438 12.24 118.298 12.83 118.298 13.49V21.17C118.298 21.69 118.128 22.13 117.788 22.49C117.448 22.83 117.018 23 116.498 23C115.978 23 115.548 22.83 115.208 22.49C114.868 22.13 114.698 21.69 114.698 21.17V8.78C114.698 8.26 114.868 7.83 115.208 7.49C115.548 7.13 115.978 6.95 116.498 6.95C117.018 6.95 117.448 7.13 117.788 7.49C118.128 7.83 118.298 8.26 118.298 8.78V10.07L117.848 9.98C118.028 9.64 118.288 9.28 118.628 8.9C118.968 8.5 119.368 8.13 119.828 7.79C120.288 7.45 120.808 7.18 121.388 6.98C121.968 6.76 122.598 6.65 123.278 6.65ZM139.229 6.65C140.069 6.65 140.839 6.78 141.539 7.04C142.239 7.3 142.839 7.63 143.339 8.03C143.859 8.43 144.259 8.84 144.539 9.26C144.839 9.66 144.989 10 144.989 10.28L144.209 10.67V8.48C144.209 7.96 144.379 7.53 144.719 7.19C145.059 6.83 145.489 6.65 146.009 6.65C146.529 6.65 146.959 6.82 147.299 7.16C147.639 7.5 147.809 7.94 147.809 8.48V21.83C147.809 23.57 147.429 24.96 146.669 26C145.929 27.06 144.949 27.82 143.729 28.28C142.509 28.76 141.199 29 139.799 29C139.399 29 138.879 28.95 138.239 28.85C137.599 28.75 136.989 28.63 136.409 28.49C135.829 28.35 135.389 28.22 135.089 28.1C134.489 27.84 134.069 27.51 133.829 27.11C133.609 26.73 133.569 26.32 133.709 25.88C133.889 25.3 134.179 24.9 134.579 24.68C134.979 24.48 135.399 24.46 135.839 24.62C136.039 24.68 136.369 24.8 136.829 24.98C137.289 25.16 137.789 25.32 138.329 25.46C138.889 25.62 139.379 25.7 139.799 25.7C141.299 25.7 142.409 25.4 143.129 24.8C143.849 24.2 144.209 23.37 144.209 22.31V19.7L144.569 19.97C144.569 20.23 144.429 20.55 144.149 20.93C143.889 21.29 143.519 21.65 143.039 22.01C142.579 22.37 142.029 22.68 141.389 22.94C140.749 23.18 140.069 23.3 139.349 23.3C137.929 23.3 136.649 22.95 135.509 22.25C134.369 21.53 133.469 20.55 132.809 19.31C132.149 18.05 131.819 16.61 131.819 14.99C131.819 13.35 132.149 11.91 132.809 10.67C133.469 9.41 134.359 8.43 135.479 7.73C136.599 7.01 137.849 6.65 139.229 6.65ZM139.799 9.95C138.899 9.95 138.109 10.17 137.429 10.61C136.749 11.05 136.219 11.65 135.839 12.41C135.459 13.17 135.269 14.03 135.269 14.99C135.269 15.93 135.459 16.78 135.839 17.54C136.219 18.3 136.749 18.9 137.429 19.34C138.109 19.78 138.899 20 139.799 20C140.719 20 141.519 19.78 142.199 19.34C142.879 18.9 143.409 18.3 143.789 17.54C144.169 16.78 144.359 15.93 144.359 14.99C144.359 14.03 144.169 13.17 143.789 12.41C143.409 11.65 142.879 11.05 142.199 10.61C141.519 10.17 140.719 9.95 139.799 9.95ZM168.118 6.71L161.638 21.95C161.498 22.33 161.278 22.63 160.978 22.85C160.698 23.05 160.388 23.15 160.048 23.15C159.508 23.15 159.108 23 158.848 22.7C158.588 22.4 158.458 22.03 158.458 21.59C158.458 21.41 158.488 21.22 158.548 21.02L166.018 3.08C166.178 2.68 166.418 2.37 166.738 2.15C167.078 1.93 167.438 1.84 167.818 1.88C168.178 1.88 168.508 1.99 168.808 2.21C169.128 2.41 169.358 2.7 169.498 3.08L176.878 20.66C176.978 20.92 177.028 21.16 177.028 21.38C177.028 21.92 176.848 22.35 176.488 22.67C176.148 22.99 175.768 23.15 175.348 23.15C174.988 23.15 174.658 23.04 174.358 22.82C174.078 22.6 173.858 22.3 173.698 21.92L167.248 6.89L168.118 6.71ZM162.568 18.29L164.218 14.84H172.318L172.888 18.29H162.568ZM187.578 6.65C188.978 6.65 190.228 7.01 191.328 7.73C192.448 8.43 193.328 9.4 193.968 10.64C194.628 11.88 194.958 13.32 194.958 14.96C194.958 16.6 194.628 18.05 193.968 19.31C193.328 20.55 192.458 21.53 191.358 22.25C190.278 22.95 189.058 23.3 187.698 23.3C186.898 23.3 186.148 23.17 185.448 22.91C184.748 22.65 184.128 22.32 183.588 21.92C183.068 21.52 182.658 21.12 182.358 20.72C182.078 20.3 181.938 19.95 181.938 19.67L182.868 19.28V27.17C182.868 27.69 182.698 28.12 182.358 28.46C182.018 28.82 181.588 29 181.068 29C180.548 29 180.118 28.83 179.778 28.49C179.438 28.15 179.268 27.71 179.268 27.17V8.78C179.268 8.26 179.438 7.83 179.778 7.49C180.118 7.13 180.548 6.95 181.068 6.95C181.588 6.95 182.018 7.13 182.358 7.49C182.698 7.83 182.868 8.26 182.868 8.78V10.25L182.358 9.98C182.358 9.72 182.498 9.41 182.778 9.05C183.058 8.67 183.438 8.3 183.918 7.94C184.398 7.56 184.948 7.25 185.568 7.01C186.208 6.77 186.878 6.65 187.578 6.65ZM187.128 9.95C186.248 9.95 185.478 10.17 184.818 10.61C184.158 11.05 183.638 11.65 183.258 12.41C182.898 13.15 182.718 14 182.718 14.96C182.718 15.9 182.898 16.76 183.258 17.54C183.638 18.3 184.158 18.9 184.818 19.34C185.478 19.78 186.248 20 187.128 20C188.008 20 188.768 19.78 189.408 19.34C190.068 18.9 190.578 18.3 190.938 17.54C191.318 16.76 191.508 15.9 191.508 14.96C191.508 14 191.318 13.15 190.938 12.41C190.578 11.65 190.068 11.05 189.408 10.61C188.768 10.17 188.008 9.95 187.128 9.95ZM206.416 6.65C207.816 6.65 209.066 7.01 210.166 7.73C211.286 8.43 212.166 9.4 212.806 10.64C213.466 11.88 213.796 13.32 213.796 14.96C213.796 16.6 213.466 18.05 212.806 19.31C212.166 20.55 211.296 21.53 210.196 22.25C209.116 22.95 207.896 23.3 206.536 23.3C205.736 23.3 204.986 23.17 204.286 22.91C203.586 22.65 202.966 22.32 202.426 21.92C201.906 21.52 201.496 21.12 201.196 20.72C200.916 20.3 200.776 19.95 200.776 19.67L201.706 19.28V27.17C201.706 27.69 201.536 28.12 201.196 28.46C200.856 28.82 200.426 29 199.906 29C199.386 29 198.956 28.83 198.616 28.49C198.276 28.15 198.106 27.71 198.106 27.17V8.78C198.106 8.26 198.276 7.83 198.616 7.49C198.956 7.13 199.386 6.95 199.906 6.95C200.426 6.95 200.856 7.13 201.196 7.49C201.536 7.83 201.706 8.26 201.706 8.78V10.25L201.196 9.98C201.196 9.72 201.336 9.41 201.616 9.05C201.896 8.67 202.276 8.3 202.756 7.94C203.236 7.56 203.786 7.25 204.406 7.01C205.046 6.77 205.716 6.65 206.416 6.65ZM205.966 9.95C205.086 9.95 204.316 10.17 203.656 10.61C202.996 11.05 202.476 11.65 202.096 12.41C201.736 13.15 201.556 14 201.556 14.96C201.556 15.9 201.736 16.76 202.096 17.54C202.476 18.3 202.996 18.9 203.656 19.34C204.316 19.78 205.086 20 205.966 20C206.846 20 207.606 19.78 208.246 19.34C208.906 18.9 209.416 18.3 209.776 17.54C210.156 16.76 210.346 15.9 210.346 14.96C210.346 14 210.156 13.15 209.776 12.41C209.416 11.65 208.906 11.05 208.246 10.61C207.606 10.17 206.846 9.95 205.966 9.95Z" fill="white"/>
<path d="M13.3478 49L11.0238 45.01H9.48384V49H8.20984V39.242H11.3598C12.0972 39.242 12.7178 39.368 13.2218 39.62C13.7352 39.872 14.1178 40.2127 14.3698 40.642C14.6218 41.0713 14.7478 41.5613 14.7478 42.112C14.7478 42.784 14.5518 43.3767 14.1598 43.89C13.7772 44.4033 13.1985 44.744 12.4238 44.912L14.8738 49H13.3478ZM9.48384 43.988H11.3598C12.0505 43.988 12.5685 43.82 12.9138 43.484C13.2592 43.1387 13.4318 42.6813 13.4318 42.112C13.4318 41.5333 13.2592 41.0853 12.9138 40.768C12.5778 40.4507 12.0598 40.292 11.3598 40.292H9.48384V43.988ZM23.5314 41.328V49H22.2574V47.866C22.0147 48.258 21.6741 48.566 21.2354 48.79C20.8061 49.0047 20.3301 49.112 19.8074 49.112C19.2101 49.112 18.6734 48.9907 18.1974 48.748C17.7214 48.496 17.3434 48.1227 17.0634 47.628C16.7927 47.1333 16.6574 46.5313 16.6574 45.822V41.328H17.9174V45.654C17.9174 46.41 18.1087 46.9933 18.4914 47.404C18.8741 47.8053 19.3967 48.006 20.0594 48.006C20.7407 48.006 21.2774 47.796 21.6694 47.376C22.0614 46.956 22.2574 46.3447 22.2574 45.542V41.328H23.5314ZM29.4205 41.188C30.3538 41.188 31.1098 41.4727 31.6885 42.042C32.2672 42.602 32.5565 43.414 32.5565 44.478V49H31.2965V44.66C31.2965 43.8947 31.1052 43.3113 30.7225 42.91C30.3398 42.4993 29.8172 42.294 29.1545 42.294C28.4825 42.294 27.9458 42.504 27.5445 42.924C27.1525 43.344 26.9565 43.9553 26.9565 44.758V49H25.6825V41.328H26.9565V42.42C27.2085 42.028 27.5492 41.7247 27.9785 41.51C28.4172 41.2953 28.8978 41.188 29.4205 41.188ZM37.894 45.136C37.894 44.352 38.0527 43.666 38.37 43.078C38.6873 42.4807 39.1213 42.0187 39.672 41.692C40.232 41.3653 40.8527 41.202 41.534 41.202C42.206 41.202 42.7893 41.3467 43.284 41.636C43.7787 41.9253 44.1473 42.2893 44.39 42.728V41.328H45.678V49H44.39V47.572C44.138 48.02 43.76 48.3933 43.256 48.692C42.7613 48.9813 42.1827 49.126 41.52 49.126C40.8387 49.126 40.2227 48.958 39.672 48.622C39.1213 48.286 38.6873 47.8147 38.37 47.208C38.0527 46.6013 37.894 45.9107 37.894 45.136ZM44.39 45.15C44.39 44.5713 44.2733 44.0673 44.04 43.638C43.8067 43.2087 43.4893 42.882 43.088 42.658C42.696 42.4247 42.262 42.308 41.786 42.308C41.31 42.308 40.876 42.42 40.484 42.644C40.092 42.868 39.7793 43.1947 39.546 43.624C39.3127 44.0533 39.196 44.5573 39.196 45.136C39.196 45.724 39.3127 46.2373 39.546 46.676C39.7793 47.1053 40.092 47.4367 40.484 47.67C40.876 47.894 41.31 48.006 41.786 48.006C42.262 48.006 42.696 47.894 43.088 47.67C43.4893 47.4367 43.8067 47.1053 44.04 46.676C44.2733 46.2373 44.39 45.7287 44.39 45.15ZM51.5689 41.188C52.5023 41.188 53.2583 41.4727 53.8369 42.042C54.4156 42.602 54.7049 43.414 54.7049 44.478V49H53.4449V44.66C53.4449 43.8947 53.2536 43.3113 52.8709 42.91C52.4883 42.4993 51.9656 42.294 51.3029 42.294C50.6309 42.294 50.0943 42.504 49.6929 42.924C49.3009 43.344 49.1049 43.9553 49.1049 44.758V49H47.8309V41.328H49.1049V42.42C49.3569 42.028 49.6976 41.7247 50.1269 41.51C50.5656 41.2953 51.0463 41.188 51.5689 41.188ZM56.31 45.136C56.31 44.352 56.4687 43.666 56.786 43.078C57.1033 42.4807 57.5373 42.0187 58.088 41.692C58.648 41.3653 59.2733 41.202 59.964 41.202C60.5613 41.202 61.1167 41.342 61.63 41.622C62.1433 41.8927 62.5353 42.252 62.806 42.7V38.64H64.094V49H62.806V47.558C62.554 48.0153 62.1807 48.3933 61.686 48.692C61.1913 48.9813 60.6127 49.126 59.95 49.126C59.2687 49.126 58.648 48.958 58.088 48.622C57.5373 48.286 57.1033 47.8147 56.786 47.208C56.4687 46.6013 56.31 45.9107 56.31 45.136ZM62.806 45.15C62.806 44.5713 62.6893 44.0673 62.456 43.638C62.2227 43.2087 61.9053 42.882 61.504 42.658C61.112 42.4247 60.678 42.308 60.202 42.308C59.726 42.308 59.292 42.42 58.9 42.644C58.508 42.868 58.1953 43.1947 57.962 43.624C57.7287 44.0533 57.612 44.5573 57.612 45.136C57.612 45.724 57.7287 46.2373 57.962 46.676C58.1953 47.1053 58.508 47.4367 58.9 47.67C59.292 47.894 59.726 48.006 60.202 48.006C60.678 48.006 61.112 47.894 61.504 47.67C61.9053 47.4367 62.2227 47.1053 62.456 46.676C62.6893 46.2373 62.806 45.7287 62.806 45.15ZM76.9794 44.87C76.9794 45.1127 76.9654 45.3693 76.9374 45.64H70.8054C70.852 46.396 71.1087 46.9887 71.5754 47.418C72.0514 47.838 72.6254 48.048 73.2974 48.048C73.848 48.048 74.3054 47.922 74.6694 47.67C75.0427 47.4087 75.304 47.0633 75.4534 46.634H76.8254C76.62 47.3713 76.2094 47.9733 75.5934 48.44C74.9774 48.8973 74.212 49.126 73.2974 49.126C72.5694 49.126 71.916 48.9627 71.3374 48.636C70.768 48.3093 70.32 47.8473 69.9934 47.25C69.6667 46.6433 69.5034 45.9433 69.5034 45.15C69.5034 44.3567 69.662 43.6613 69.9794 43.064C70.2967 42.4667 70.74 42.0093 71.3094 41.692C71.888 41.3653 72.5507 41.202 73.2974 41.202C74.0254 41.202 74.6694 41.3607 75.2294 41.678C75.7894 41.9953 76.2187 42.434 76.5174 42.994C76.8254 43.5447 76.9794 44.17 76.9794 44.87ZM75.6634 44.604C75.6634 44.1187 75.556 43.7033 75.3414 43.358C75.1267 43.0033 74.8327 42.7373 74.4594 42.56C74.0954 42.3733 73.6894 42.28 73.2414 42.28C72.5974 42.28 72.0467 42.4853 71.5894 42.896C71.1414 43.3067 70.8847 43.876 70.8194 44.604H75.6634ZM78.185 45.136C78.185 44.352 78.3437 43.666 78.661 43.078C78.9783 42.4807 79.4123 42.0187 79.963 41.692C80.523 41.3653 81.1437 41.202 81.825 41.202C82.497 41.202 83.0803 41.3467 83.575 41.636C84.0697 41.9253 84.4383 42.2893 84.681 42.728V41.328H85.969V49H84.681V47.572C84.429 48.02 84.051 48.3933 83.547 48.692C83.0523 48.9813 82.4737 49.126 81.811 49.126C81.1297 49.126 80.5137 48.958 79.963 48.622C79.4123 48.286 78.9783 47.8147 78.661 47.208C78.3437 46.6013 78.185 45.9107 78.185 45.136ZM84.681 45.15C84.681 44.5713 84.5643 44.0673 84.331 43.638C84.0977 43.2087 83.7803 42.882 83.379 42.658C82.987 42.4247 82.553 42.308 82.077 42.308C81.601 42.308 81.167 42.42 80.775 42.644C80.383 42.868 80.0703 43.1947 79.837 43.624C79.6037 44.0533 79.487 44.5573 79.487 45.136C79.487 45.724 79.6037 46.2373 79.837 46.676C80.0703 47.1053 80.383 47.4367 80.775 47.67C81.167 47.894 81.601 48.006 82.077 48.006C82.553 48.006 82.987 47.894 83.379 47.67C83.7803 47.4367 84.0977 47.1053 84.331 46.676C84.5643 46.2373 84.681 45.7287 84.681 45.15ZM89.3959 42.574C89.6199 42.1353 89.9373 41.7947 90.3479 41.552C90.7679 41.3093 91.2766 41.188 91.8739 41.188V42.504H91.5379C90.1099 42.504 89.3959 43.2787 89.3959 44.828V49H88.1219V41.328H89.3959V42.574ZM97.0826 41.188C98.0159 41.188 98.7719 41.4727 99.3506 42.042C99.9293 42.602 100.219 43.414 100.219 44.478V49H98.9586V44.66C98.9586 43.8947 98.7673 43.3113 98.3846 42.91C98.0019 42.4993 97.4793 42.294 96.8166 42.294C96.1446 42.294 95.6079 42.504 95.2066 42.924C94.8146 43.344 94.6186 43.9553 94.6186 44.758V49H93.3446V41.328H94.6186V42.42C94.8706 42.028 95.2113 41.7247 95.6406 41.51C96.0793 41.2953 96.5599 41.188 97.0826 41.188ZM116.252 41.328L113.858 49H112.542L110.694 42.91L108.846 49H107.53L105.122 41.328H106.424L108.188 47.768L110.092 41.328H111.394L113.256 47.782L114.992 41.328H116.252ZM118.174 40.082C117.932 40.082 117.726 39.998 117.558 39.83C117.39 39.662 117.306 39.4567 117.306 39.214C117.306 38.9713 117.39 38.766 117.558 38.598C117.726 38.43 117.932 38.346 118.174 38.346C118.408 38.346 118.604 38.43 118.762 38.598C118.93 38.766 119.014 38.9713 119.014 39.214C119.014 39.4567 118.93 39.662 118.762 39.83C118.604 39.998 118.408 40.082 118.174 40.082ZM118.79 41.328V49H117.516V41.328H118.79ZM122.516 42.378V46.9C122.516 47.2733 122.595 47.5393 122.754 47.698C122.912 47.8473 123.188 47.922 123.58 47.922H124.518V49H123.37C122.66 49 122.128 48.8367 121.774 48.51C121.419 48.1833 121.242 47.6467 121.242 46.9V42.378H120.248V41.328H121.242V39.396H122.516V41.328H124.518V42.378H122.516ZM129.869 41.188C130.448 41.188 130.971 41.314 131.437 41.566C131.904 41.8087 132.268 42.1773 132.529 42.672C132.8 43.1667 132.935 43.7687 132.935 44.478V49H131.675V44.66C131.675 43.8947 131.484 43.3113 131.101 42.91C130.719 42.4993 130.196 42.294 129.533 42.294C128.861 42.294 128.325 42.504 127.923 42.924C127.531 43.344 127.335 43.9553 127.335 44.758V49H126.061V38.64H127.335V42.42C127.587 42.028 127.933 41.7247 128.371 41.51C128.819 41.2953 129.319 41.188 129.869 41.188ZM142.095 49.126C141.376 49.126 140.723 48.9627 140.135 48.636C139.556 48.3093 139.099 47.8473 138.763 47.25C138.436 46.6433 138.273 45.9433 138.273 45.15C138.273 44.366 138.441 43.6753 138.777 43.078C139.122 42.4713 139.589 42.0093 140.177 41.692C140.765 41.3653 141.423 41.202 142.151 41.202C142.879 41.202 143.537 41.3653 144.125 41.692C144.713 42.0093 145.175 42.4667 145.511 43.064C145.856 43.6613 146.029 44.3567 146.029 45.15C146.029 45.9433 145.852 46.6433 145.497 47.25C145.152 47.8473 144.68 48.3093 144.083 48.636C143.486 48.9627 142.823 49.126 142.095 49.126ZM142.095 48.006C142.552 48.006 142.982 47.8987 143.383 47.684C143.784 47.4693 144.106 47.1473 144.349 46.718C144.601 46.2887 144.727 45.766 144.727 45.15C144.727 44.534 144.606 44.0113 144.363 43.582C144.12 43.1527 143.803 42.8353 143.411 42.63C143.019 42.4153 142.594 42.308 142.137 42.308C141.67 42.308 141.241 42.4153 140.849 42.63C140.466 42.8353 140.158 43.1527 139.925 43.582C139.692 44.0113 139.575 44.534 139.575 45.15C139.575 45.7753 139.687 46.3027 139.911 46.732C140.144 47.1613 140.452 47.4833 140.835 47.698C141.218 47.9033 141.638 48.006 142.095 48.006ZM154.508 41.328V49H153.234V47.866C152.991 48.258 152.651 48.566 152.212 48.79C151.783 49.0047 151.307 49.112 150.784 49.112C150.187 49.112 149.65 48.9907 149.174 48.748C148.698 48.496 148.32 48.1227 148.04 47.628C147.769 47.1333 147.634 46.5313 147.634 45.822V41.328H148.894V45.654C148.894 46.41 149.085 46.9933 149.468 47.404C149.851 47.8053 150.373 48.006 151.036 48.006C151.717 48.006 152.254 47.796 152.646 47.376C153.038 46.956 153.234 46.3447 153.234 45.542V41.328H154.508ZM157.933 42.574C158.157 42.1353 158.474 41.7947 158.885 41.552C159.305 41.3093 159.814 41.188 160.411 41.188V42.504H160.075C158.647 42.504 157.933 43.2787 157.933 44.828V49H156.659V41.328H157.933V42.574ZM165.138 45.136C165.138 44.352 165.297 43.666 165.614 43.078C165.931 42.4807 166.365 42.0187 166.916 41.692C167.476 41.3653 168.097 41.202 168.778 41.202C169.45 41.202 170.033 41.3467 170.528 41.636C171.023 41.9253 171.391 42.2893 171.634 42.728V41.328H172.922V49H171.634V47.572C171.382 48.02 171.004 48.3933 170.5 48.692C170.005 48.9813 169.427 49.126 168.764 49.126C168.083 49.126 167.467 48.958 166.916 48.622C166.365 48.286 165.931 47.8147 165.614 47.208C165.297 46.6013 165.138 45.9107 165.138 45.136ZM171.634 45.15C171.634 44.5713 171.517 44.0673 171.284 43.638C171.051 43.2087 170.733 42.882 170.332 42.658C169.94 42.4247 169.506 42.308 169.03 42.308C168.554 42.308 168.12 42.42 167.728 42.644C167.336 42.868 167.023 43.1947 166.79 43.624C166.557 44.0533 166.44 44.5573 166.44 45.136C166.44 45.724 166.557 46.2373 166.79 46.676C167.023 47.1053 167.336 47.4367 167.728 47.67C168.12 47.894 168.554 48.006 169.03 48.006C169.506 48.006 169.94 47.894 170.332 47.67C170.733 47.4367 171.051 47.1053 171.284 46.676C171.517 46.2373 171.634 45.7287 171.634 45.15ZM176.349 42.742C176.601 42.3033 176.974 41.9393 177.469 41.65C177.973 41.3513 178.556 41.202 179.219 41.202C179.9 41.202 180.516 41.3653 181.067 41.692C181.627 42.0187 182.066 42.4807 182.383 43.078C182.7 43.666 182.859 44.352 182.859 45.136C182.859 45.9107 182.7 46.6013 182.383 47.208C182.066 47.8147 181.627 48.286 181.067 48.622C180.516 48.958 179.9 49.126 179.219 49.126C178.566 49.126 177.987 48.9813 177.483 48.692C176.988 48.3933 176.61 48.0247 176.349 47.586V52.64H175.075V41.328H176.349V42.742ZM181.557 45.136C181.557 44.5573 181.44 44.0533 181.207 43.624C180.974 43.1947 180.656 42.868 180.255 42.644C179.863 42.42 179.429 42.308 178.953 42.308C178.486 42.308 178.052 42.4247 177.651 42.658C177.259 42.882 176.942 43.2133 176.699 43.652C176.466 44.0813 176.349 44.5807 176.349 45.15C176.349 45.7287 176.466 46.2373 176.699 46.676C176.942 47.1053 177.259 47.4367 177.651 47.67C178.052 47.894 178.486 48.006 178.953 48.006C179.429 48.006 179.863 47.894 180.255 47.67C180.656 47.4367 180.974 47.1053 181.207 46.676C181.44 46.2373 181.557 45.724 181.557 45.136ZM185.81 42.742C186.062 42.3033 186.435 41.9393 186.93 41.65C187.434 41.3513 188.017 41.202 188.68 41.202C189.361 41.202 189.977 41.3653 190.528 41.692C191.088 42.0187 191.527 42.4807 191.844 43.078C192.161 43.666 192.32 44.352 192.32 45.136C192.32 45.9107 192.161 46.6013 191.844 47.208C191.527 47.8147 191.088 48.286 190.528 48.622C189.977 48.958 189.361 49.126 188.68 49.126C188.027 49.126 187.448 48.9813 186.944 48.692C186.449 48.3933 186.071 48.0247 185.81 47.586V52.64H184.536V41.328H185.81V42.742ZM191.018 45.136C191.018 44.5573 190.901 44.0533 190.668 43.624C190.435 43.1947 190.117 42.868 189.716 42.644C189.324 42.42 188.89 42.308 188.414 42.308C187.947 42.308 187.513 42.4247 187.112 42.658C186.72 42.882 186.403 43.2133 186.16 43.652C185.927 44.0813 185.81 44.5807 185.81 45.15C185.81 45.7287 185.927 46.2373 186.16 46.676C186.403 47.1053 186.72 47.4367 187.112 47.67C187.513 47.894 187.947 48.006 188.414 48.006C188.89 48.006 189.324 47.894 189.716 47.67C190.117 47.4367 190.435 47.1053 190.668 46.676C190.901 46.2373 191.018 45.724 191.018 45.136ZM194.403 49.084C194.16 49.084 193.955 49 193.787 48.832C193.619 48.664 193.535 48.4587 193.535 48.216C193.535 47.9733 193.619 47.768 193.787 47.6C193.955 47.432 194.16 47.348 194.403 47.348C194.636 47.348 194.832 47.432 194.991 47.6C195.159 47.768 195.243 47.9733 195.243 48.216C195.243 48.4587 195.159 48.664 194.991 48.832C194.832 49 194.636 49.084 194.403 49.084ZM203.763 49.098C203.119 49.098 202.54 48.986 202.027 48.762C201.523 48.5287 201.126 48.2113 200.837 47.81C200.547 47.3993 200.398 46.928 200.389 46.396H201.747C201.793 46.8533 201.98 47.2407 202.307 47.558C202.643 47.866 203.128 48.02 203.763 48.02C204.369 48.02 204.845 47.8707 205.191 47.572C205.545 47.264 205.723 46.872 205.723 46.396C205.723 46.0227 205.62 45.7193 205.415 45.486C205.209 45.2527 204.953 45.0753 204.645 44.954C204.337 44.8327 203.921 44.702 203.399 44.562C202.755 44.394 202.237 44.226 201.845 44.058C201.462 43.89 201.131 43.6287 200.851 43.274C200.58 42.91 200.445 42.4247 200.445 41.818C200.445 41.286 200.58 40.8147 200.851 40.404C201.121 39.9933 201.499 39.676 201.985 39.452C202.479 39.228 203.044 39.116 203.679 39.116C204.593 39.116 205.34 39.3447 205.919 39.802C206.507 40.2593 206.838 40.866 206.913 41.622H205.513C205.466 41.2487 205.27 40.922 204.925 40.642C204.579 40.3527 204.122 40.208 203.553 40.208C203.021 40.208 202.587 40.348 202.251 40.628C201.915 40.8987 201.747 41.2813 201.747 41.776C201.747 42.1307 201.845 42.42 202.041 42.644C202.246 42.868 202.493 43.0407 202.783 43.162C203.081 43.274 203.497 43.4047 204.029 43.554C204.673 43.7313 205.191 43.9087 205.583 44.086C205.975 44.254 206.311 44.52 206.591 44.884C206.871 45.2387 207.011 45.724 207.011 46.34C207.011 46.816 206.885 47.264 206.633 47.684C206.381 48.104 206.007 48.4447 205.513 48.706C205.018 48.9673 204.435 49.098 203.763 49.098ZM212.232 49.126C211.513 49.126 210.86 48.9627 210.272 48.636C209.693 48.3093 209.236 47.8473 208.9 47.25C208.573 46.6433 208.41 45.9433 208.41 45.15C208.41 44.366 208.578 43.6753 208.914 43.078C209.259 42.4713 209.726 42.0093 210.314 41.692C210.902 41.3653 211.56 41.202 212.288 41.202C213.016 41.202 213.674 41.3653 214.262 41.692C214.85 42.0093 215.312 42.4667 215.648 43.064C215.993 43.6613 216.166 44.3567 216.166 45.15C216.166 45.9433 215.988 46.6433 215.634 47.25C215.288 47.8473 214.817 48.3093 214.22 48.636C213.622 48.9627 212.96 49.126 212.232 49.126ZM212.232 48.006C212.689 48.006 213.118 47.8987 213.52 47.684C213.921 47.4693 214.243 47.1473 214.486 46.718C214.738 46.2887 214.864 45.766 214.864 45.15C214.864 44.534 214.742 44.0113 214.5 43.582C214.257 43.1527 213.94 42.8353 213.548 42.63C213.156 42.4153 212.731 42.308 212.274 42.308C211.807 42.308 211.378 42.4153 210.986 42.63C210.603 42.8353 210.295 43.1527 210.062 43.582C209.828 44.0113 209.712 44.534 209.712 45.15C209.712 45.7753 209.824 46.3027 210.048 46.732C210.281 47.1613 210.589 47.4833 210.972 47.698C211.354 47.9033 211.774 48.006 212.232 48.006ZM227.067 41.188C227.664 41.188 228.196 41.314 228.663 41.566C229.129 41.8087 229.498 42.1773 229.769 42.672C230.039 43.1667 230.175 43.7687 230.175 44.478V49H228.915V44.66C228.915 43.8947 228.723 43.3113 228.341 42.91C227.967 42.4993 227.459 42.294 226.815 42.294C226.152 42.294 225.625 42.5087 225.233 42.938C224.841 43.358 224.645 43.9693 224.645 44.772V49H223.385V44.66C223.385 43.8947 223.193 43.3113 222.811 42.91C222.437 42.4993 221.929 42.294 221.285 42.294C220.622 42.294 220.095 42.5087 219.703 42.938C219.311 43.358 219.115 43.9693 219.115 44.772V49H217.841V41.328H219.115V42.434C219.367 42.0327 219.703 41.7247 220.123 41.51C220.552 41.2953 221.023 41.188 221.537 41.188C222.181 41.188 222.75 41.3327 223.245 41.622C223.739 41.9113 224.108 42.336 224.351 42.896C224.565 42.3547 224.92 41.9347 225.415 41.636C225.909 41.3373 226.46 41.188 227.067 41.188ZM239.265 44.87C239.265 45.1127 239.251 45.3693 239.223 45.64H233.091C233.137 46.396 233.394 46.9887 233.861 47.418C234.337 47.838 234.911 48.048 235.583 48.048C236.133 48.048 236.591 47.922 236.955 47.67C237.328 47.4087 237.589 47.0633 237.739 46.634H239.111C238.905 47.3713 238.495 47.9733 237.879 48.44C237.263 48.8973 236.497 49.126 235.583 49.126C234.855 49.126 234.201 48.9627 233.623 48.636C233.053 48.3093 232.605 47.8473 232.279 47.25C231.952 46.6433 231.789 45.9433 231.789 45.15C231.789 44.3567 231.947 43.6613 232.265 43.064C232.582 42.4667 233.025 42.0093 233.595 41.692C234.173 41.3653 234.836 41.202 235.583 41.202C236.311 41.202 236.955 41.3607 237.515 41.678C238.075 41.9953 238.504 42.434 238.803 42.994C239.111 43.5447 239.265 44.17 239.265 44.87ZM237.949 44.604C237.949 44.1187 237.841 43.7033 237.627 43.358C237.412 43.0033 237.118 42.7373 236.745 42.56C236.381 42.3733 235.975 42.28 235.527 42.28C234.883 42.28 234.332 42.4853 233.875 42.896C233.427 43.3067 233.17 43.876 233.105 44.604H237.949ZM44.7912 60.378V64.9C44.7912 65.2733 44.8705 65.5393 45.0292 65.698C45.1878 65.8473 45.4632 65.922 45.8552 65.922H46.7932V67H45.6452C44.9358 67 44.4038 66.8367 44.0492 66.51C43.6945 66.1833 43.5172 65.6467 43.5172 64.9V60.378H42.5232V59.328H43.5172V57.396H44.7912V59.328H46.7932V60.378H44.7912ZM55.3368 62.87C55.3368 63.1127 55.3228 63.3693 55.2948 63.64H49.1628C49.2095 64.396 49.4661 64.9887 49.9328 65.418C50.4088 65.838 50.9828 66.048 51.6548 66.048C52.2055 66.048 52.6628 65.922 53.0268 65.67C53.4001 65.4087 53.6615 65.0633 53.8108 64.634H55.1828C54.9775 65.3713 54.5668 65.9733 53.9508 66.44C53.3348 66.8973 52.5695 67.126 51.6548 67.126C50.9268 67.126 50.2735 66.9627 49.6948 66.636C49.1255 66.3093 48.6775 65.8473 48.3508 65.25C48.0241 64.6433 47.8608 63.9433 47.8608 63.15C47.8608 62.3567 48.0195 61.6613 48.3368 61.064C48.6541 60.4667 49.0975 60.0093 49.6668 59.692C50.2455 59.3653 50.9081 59.202 51.6548 59.202C52.3828 59.202 53.0268 59.3607 53.5868 59.678C54.1468 59.9953 54.5761 60.434 54.8748 60.994C55.1828 61.5447 55.3368 62.17 55.3368 62.87ZM54.0208 62.604C54.0208 62.1187 53.9135 61.7033 53.6988 61.358C53.4841 61.0033 53.1901 60.7373 52.8168 60.56C52.4528 60.3733 52.0468 60.28 51.5988 60.28C50.9548 60.28 50.4041 60.4853 49.9468 60.896C49.4988 61.3067 49.2421 61.876 49.1768 62.604H54.0208ZM61.0224 67L59.2024 64.144L57.4524 67H56.1224L58.6004 63.192L56.1224 59.328H57.5644L59.3844 62.17L61.1204 59.328H62.4504L59.9864 63.122L62.4644 67H61.0224ZM65.2716 60.378V64.9C65.2716 65.2733 65.351 65.5393 65.5096 65.698C65.6683 65.8473 65.9436 65.922 66.3356 65.922H67.2736V67H66.1256C65.4163 67 64.8843 66.8367 64.5296 66.51C64.175 66.1833 63.9976 65.6467 63.9976 64.9V60.378H63.0036V59.328H63.9976V57.396H65.2716V59.328H67.2736V60.378H65.2716ZM73.8237 58.278V61.54H77.3797V62.59H73.8237V65.95H77.7997V67H72.5497V57.228H77.7997V58.278H73.8237ZM83.7314 67L81.9114 64.144L80.1614 67H78.8314L81.3094 63.192L78.8314 59.328H80.2734L82.0934 62.17L83.8294 59.328H85.1594L82.6954 63.122L85.1734 67H83.7314ZM85.9506 63.136C85.9506 62.352 86.1093 61.666 86.4266 61.078C86.744 60.4807 87.178 60.0187 87.7286 59.692C88.2886 59.3653 88.9093 59.202 89.5906 59.202C90.2626 59.202 90.846 59.3467 91.3406 59.636C91.8353 59.9253 92.204 60.2893 92.4466 60.728V59.328H93.7346V67H92.4466V65.572C92.1946 66.02 91.8166 66.3933 91.3126 66.692C90.818 66.9813 90.2393 67.126 89.5766 67.126C88.8953 67.126 88.2793 66.958 87.7286 66.622C87.178 66.286 86.744 65.8147 86.4266 65.208C86.1093 64.6013 85.9506 63.9107 85.9506 63.136ZM92.4466 63.15C92.4466 62.5713 92.33 62.0673 92.0966 61.638C91.8633 61.2087 91.546 60.882 91.1446 60.658C90.7526 60.4247 90.3186 60.308 89.8426 60.308C89.3666 60.308 88.9326 60.42 88.5406 60.644C88.1486 60.868 87.836 61.1947 87.6026 61.624C87.3693 62.0533 87.2526 62.5573 87.2526 63.136C87.2526 63.724 87.3693 64.2373 87.6026 64.676C87.836 65.1053 88.1486 65.4367 88.5406 65.67C88.9326 65.894 89.3666 66.006 89.8426 66.006C90.3186 66.006 90.7526 65.894 91.1446 65.67C91.546 65.4367 91.8633 65.1053 92.0966 64.676C92.33 64.2373 92.4466 63.7287 92.4466 63.15ZM105.114 59.188C105.711 59.188 106.243 59.314 106.71 59.566C107.176 59.8087 107.545 60.1773 107.816 60.672C108.086 61.1667 108.222 61.7687 108.222 62.478V67H106.962V62.66C106.962 61.8947 106.77 61.3113 106.388 60.91C106.014 60.4993 105.506 60.294 104.862 60.294C104.199 60.294 103.672 60.5087 103.28 60.938C102.888 61.358 102.692 61.9693 102.692 62.772V67H101.432V62.66C101.432 61.8947 101.24 61.3113 100.858 60.91C100.484 60.4993 99.9756 60.294 99.3316 60.294C98.6689 60.294 98.1416 60.5087 97.7496 60.938C97.3576 61.358 97.1616 61.9693 97.1616 62.772V67H95.8876V59.328H97.1616V60.434C97.4136 60.0327 97.7496 59.7247 98.1696 59.51C98.5989 59.2953 99.0702 59.188 99.5836 59.188C100.228 59.188 100.797 59.3327 101.292 59.622C101.786 59.9113 102.155 60.336 102.398 60.896C102.612 60.3547 102.967 59.9347 103.462 59.636C103.956 59.3373 104.507 59.188 105.114 59.188ZM111.585 60.742C111.837 60.3033 112.211 59.9393 112.705 59.65C113.209 59.3513 113.793 59.202 114.455 59.202C115.137 59.202 115.753 59.3653 116.303 59.692C116.863 60.0187 117.302 60.4807 117.619 61.078C117.937 61.666 118.095 62.352 118.095 63.136C118.095 63.9107 117.937 64.6013 117.619 65.208C117.302 65.8147 116.863 66.286 116.303 66.622C115.753 66.958 115.137 67.126 114.455 67.126C113.802 67.126 113.223 66.9813 112.719 66.692C112.225 66.3933 111.847 66.0247 111.585 65.586V70.64H110.311V59.328H111.585V60.742ZM116.793 63.136C116.793 62.5573 116.677 62.0533 116.443 61.624C116.21 61.1947 115.893 60.868 115.491 60.644C115.099 60.42 114.665 60.308 114.189 60.308C113.723 60.308 113.289 60.4247 112.887 60.658C112.495 60.882 112.178 61.2133 111.935 61.652C111.702 62.0813 111.585 62.5807 111.585 63.15C111.585 63.7287 111.702 64.2373 111.935 64.676C112.178 65.1053 112.495 65.4367 112.887 65.67C113.289 65.894 113.723 66.006 114.189 66.006C114.665 66.006 115.099 65.894 115.491 65.67C115.893 65.4367 116.21 65.1053 116.443 64.676C116.677 64.2373 116.793 63.724 116.793 63.136ZM121.046 56.64V67H119.772V56.64H121.046ZM130.218 62.87C130.218 63.1127 130.204 63.3693 130.176 63.64H124.044C124.09 64.396 124.347 64.9887 124.814 65.418C125.29 65.838 125.864 66.048 126.536 66.048C127.086 66.048 127.544 65.922 127.908 65.67C128.281 65.4087 128.542 65.0633 128.692 64.634H130.064C129.858 65.3713 129.448 65.9733 128.832 66.44C128.216 66.8973 127.45 67.126 126.536 67.126C125.808 67.126 125.154 66.9627 124.576 66.636C124.006 66.3093 123.558 65.8473 123.232 65.25C122.905 64.6433 122.742 63.9433 122.742 63.15C122.742 62.3567 122.9 61.6613 123.218 61.064C123.535 60.4667 123.978 60.0093 124.548 59.692C125.126 59.3653 125.789 59.202 126.536 59.202C127.264 59.202 127.908 59.3607 128.468 59.678C129.028 59.9953 129.457 60.434 129.756 60.994C130.064 61.5447 130.218 62.17 130.218 62.87ZM128.902 62.604C128.902 62.1187 128.794 61.7033 128.58 61.358C128.365 61.0033 128.071 60.7373 127.698 60.56C127.334 60.3733 126.928 60.28 126.48 60.28C125.836 60.28 125.285 60.4853 124.828 60.896C124.38 61.3067 124.123 61.876 124.058 62.604H128.902ZM145.852 59.328L143.458 67H142.142L140.294 60.91L138.446 67H137.13L134.722 59.328H136.024L137.788 65.768L139.692 59.328H140.994L142.856 65.782L144.592 59.328H145.852ZM147.774 58.082C147.531 58.082 147.326 57.998 147.158 57.83C146.99 57.662 146.906 57.4567 146.906 57.214C146.906 56.9713 146.99 56.766 147.158 56.598C147.326 56.43 147.531 56.346 147.774 56.346C148.007 56.346 148.203 56.43 148.362 56.598C148.53 56.766 148.614 56.9713 148.614 57.214C148.614 57.4567 148.53 57.662 148.362 57.83C148.203 57.998 148.007 58.082 147.774 58.082ZM148.39 59.328V67H147.116V59.328H148.39ZM151.835 56.64V67H150.561V56.64H151.835ZM155.281 56.64V67H154.007V56.64H155.281ZM162.458 60.756C162.72 60.2987 163.102 59.9253 163.606 59.636C164.11 59.3467 164.684 59.202 165.328 59.202C166.019 59.202 166.64 59.3653 167.19 59.692C167.741 60.0187 168.175 60.4807 168.492 61.078C168.81 61.666 168.968 62.352 168.968 63.136C168.968 63.9107 168.81 64.6013 168.492 65.208C168.175 65.8147 167.736 66.286 167.176 66.622C166.626 66.958 166.01 67.126 165.328 67.126C164.666 67.126 164.082 66.9813 163.578 66.692C163.084 66.4027 162.71 66.034 162.458 65.586V67H161.184V56.64H162.458V60.756ZM167.666 63.136C167.666 62.5573 167.55 62.0533 167.316 61.624C167.083 61.1947 166.766 60.868 166.364 60.644C165.972 60.42 165.538 60.308 165.062 60.308C164.596 60.308 164.162 60.4247 163.76 60.658C163.368 60.882 163.051 61.2133 162.808 61.652C162.575 62.0813 162.458 62.5807 162.458 63.15C162.458 63.7287 162.575 64.2373 162.808 64.676C163.051 65.1053 163.368 65.4367 163.76 65.67C164.162 65.894 164.596 66.006 165.062 66.006C165.538 66.006 165.972 65.894 166.364 65.67C166.766 65.4367 167.083 65.1053 167.316 64.676C167.55 64.2373 167.666 63.724 167.666 63.136ZM177.645 62.87C177.645 63.1127 177.631 63.3693 177.603 63.64H171.471C171.518 64.396 171.775 64.9887 172.241 65.418C172.717 65.838 173.291 66.048 173.963 66.048C174.514 66.048 174.971 65.922 175.335 65.67C175.709 65.4087 175.97 65.0633 176.119 64.634H177.491C177.286 65.3713 176.875 65.9733 176.259 66.44C175.643 66.8973 174.878 67.126 173.963 67.126C173.235 67.126 172.582 66.9627 172.003 66.636C171.434 66.3093 170.986 65.8473 170.659 65.25C170.333 64.6433 170.169 63.9433 170.169 63.15C170.169 62.3567 170.328 61.6613 170.645 61.064C170.963 60.4667 171.406 60.0093 171.975 59.692C172.554 59.3653 173.217 59.202 173.963 59.202C174.691 59.202 175.335 59.3607 175.895 59.678C176.455 59.9953 176.885 60.434 177.183 60.994C177.491 61.5447 177.645 62.17 177.645 62.87ZM176.329 62.604C176.329 62.1187 176.222 61.7033 176.007 61.358C175.793 61.0033 175.499 60.7373 175.125 60.56C174.761 60.3733 174.355 60.28 173.907 60.28C173.263 60.28 172.713 60.4853 172.255 60.896C171.807 61.3067 171.551 61.876 171.485 62.604H176.329ZM186.867 59.188C187.446 59.188 187.969 59.314 188.435 59.566C188.902 59.8087 189.266 60.1773 189.527 60.672C189.798 61.1667 189.933 61.7687 189.933 62.478V67H188.673V62.66C188.673 61.8947 188.482 61.3113 188.099 60.91C187.717 60.4993 187.194 60.294 186.531 60.294C185.859 60.294 185.323 60.504 184.921 60.924C184.529 61.344 184.333 61.9553 184.333 62.758V67H183.059V56.64H184.333V60.42C184.585 60.028 184.931 59.7247 185.369 59.51C185.817 59.2953 186.317 59.188 186.867 59.188ZM199.015 62.87C199.015 63.1127 199.001 63.3693 198.973 63.64H192.841C192.887 64.396 193.144 64.9887 193.611 65.418C194.087 65.838 194.661 66.048 195.333 66.048C195.883 66.048 196.341 65.922 196.705 65.67C197.078 65.4087 197.339 65.0633 197.489 64.634H198.861C198.655 65.3713 198.245 65.9733 197.629 66.44C197.013 66.8973 196.247 67.126 195.333 67.126C194.605 67.126 193.951 66.9627 193.373 66.636C192.803 66.3093 192.355 65.8473 192.029 65.25C191.702 64.6433 191.539 63.9433 191.539 63.15C191.539 62.3567 191.697 61.6613 192.015 61.064C192.332 60.4667 192.775 60.0093 193.345 59.692C193.923 59.3653 194.586 59.202 195.333 59.202C196.061 59.202 196.705 59.3607 197.265 59.678C197.825 59.9953 198.254 60.434 198.553 60.994C198.861 61.5447 199.015 62.17 199.015 62.87ZM197.699 62.604C197.699 62.1187 197.591 61.7033 197.377 61.358C197.162 61.0033 196.868 60.7373 196.495 60.56C196.131 60.3733 195.725 60.28 195.277 60.28C194.633 60.28 194.082 60.4853 193.625 60.896C193.177 61.3067 192.92 61.876 192.855 62.604H197.699ZM201.97 60.574C202.194 60.1353 202.511 59.7947 202.922 59.552C203.342 59.3093 203.851 59.188 204.448 59.188V60.504H204.112C202.684 60.504 201.97 61.2787 201.97 62.828V67H200.696V59.328H201.97V60.574Z" fill="#AEA8B3"/>
</svg>
