<svg width="375" height="360" viewBox="0 0 375 360" fill="none" xmlns="http://www.w3.org/2000/svg">
<path d="M309.922 0.0147882C254.684 -0.700537 205.204 24.5867 172.46 64.6356C143.804 99.6959 101.24 119.679 56.5522 118.034C55.1493 117.978 53.7384 117.96 52.3193 117.951C-12.5597 117.904 -59.5425 171.851 -59.9966 238.107C-60.4588 305.347 -13.5003 360 52.2302 360C70.167 360 87.1713 355.931 102.408 348.648C146.115 327.745 195.303 328.916 239.975 347.579C260.515 356.154 284.095 359.619 307.651 359.619C404.877 359.619 479 279.112 479 179.803C479 81.116 406.531 1.25035 309.922 0.00549809V0.0147882Z" fill="#2F3C50"/>
</svg>
